<?xml version="1.0" standalone="no"?>
<!DOCTYPE svg PUBLIC "-//W3C//DTD SVG 20010904//EN"
 "http://www.w3.org/TR/2001/REC-SVG-20010904/DTD/svg10.dtd">
<svg version="1.0" xmlns="http://www.w3.org/2000/svg"
 width="200.000000pt" height="200.000000pt" viewBox="0 0 200.000000 200.000000"
 preserveAspectRatio="xMidYMid meet">

<g transform="translate(0.000000,200.000000) scale(0.100000,-0.100000)"
fill="#000000" stroke="none">
<path d="M138 938 c-9 -24 -25 -67 -37 -95 -22 -56 -12 -73 14 -23 13 25 22
30 50 30 28 0 37 -5 50 -30 16 -31 35 -40 35 -17 0 7 -4 17 -8 23 -5 5 -19 36
-32 69 -38 99 -48 105 -72 43z m52 -60 c0 -13 -8 -18 -30 -18 -28 0 -29 2 -19
26 5 15 12 31 16 37 8 13 33 -21 33 -45z"/>
<path d="M830 907 c0 -60 4 -79 21 -101 25 -32 75 -35 110 -7 21 17 24 28 24
93 0 98 -19 100 -23 3 -3 -69 -5 -77 -27 -87 -19 -8 -31 -8 -50 0 -22 10 -24
17 -27 88 -2 51 -7 79 -15 82 -10 3 -13 -16 -13 -71z"/>
<path d="M1175 969 c-10 -15 3 -25 16 -12 7 7 7 13 1 17 -6 3 -14 1 -17 -5z"/>
<path d="M1700 960 c0 -5 7 -10 15 -10 8 0 15 5 15 10 0 6 -7 10 -15 10 -8 0
-15 -4 -15 -10z"/>
<path d="M387 922 c-12 -13 -15 -22 -8 -27 6 -3 11 -28 11 -55 0 -44 3 -50 24
-56 14 -3 31 -2 38 2 9 6 6 10 -12 14 -22 5 -25 12 -28 53 -3 42 -1 47 17 47
12 0 21 5 21 10 0 6 -9 10 -19 10 -11 0 -21 5 -23 11 -2 6 -11 2 -21 -9z"/>
<path d="M1775 921 c-6 -6 -8 -36 -5 -67 5 -61 23 -83 56 -69 17 7 17 8 -6 14
-21 6 -25 14 -28 50 -3 36 0 43 17 48 21 5 30 23 12 23 -5 0 -15 2 -23 5 -7 3
-18 1 -23 -4z"/>
<path d="M282 908 c-21 -21 -13 -47 18 -63 17 -9 30 -23 30 -31 0 -12 -7 -15
-30 -12 -31 5 -41 -8 -15 -18 22 -9 62 4 69 21 8 23 -1 38 -35 57 -34 20 -31
38 7 38 14 0 22 4 19 10 -9 14 -48 13 -63 -2z"/>
<path d="M492 900 c-30 -28 -30 -83 0 -104 49 -35 111 -4 111 54 0 61 -67 91
-111 50z m76 -12 c15 -15 15 -61 0 -76 -21 -21 -57 -14 -70 13 -23 51 32 101
70 63z"/>
<path d="M630 853 c0 -49 3 -63 15 -63 11 0 15 12 15 49 0 41 4 51 20 56 31
10 40 -2 40 -56 0 -35 4 -49 14 -49 10 0 13 13 12 49 -3 66 -16 80 -72 78
l-44 -2 0 -62z"/>
<path d="M1022 850 c4 -79 21 -86 28 -10 5 51 7 55 30 55 23 0 25 -4 28 -50 5
-75 22 -81 22 -8 0 71 -9 81 -68 80 l-43 -2 3 -65z"/>
<path d="M1170 850 c0 -53 3 -71 13 -67 8 2 12 25 12 67 0 42 -4 65 -12 68
-10 3 -13 -15 -13 -68z"/>
<path d="M1220 914 c0 -14 53 -124 59 -124 10 0 51 96 51 117 0 24 -12 8 -32
-40 l-16 -42 -21 48 c-11 26 -25 47 -31 47 -5 0 -10 -3 -10 -6z"/>
<path d="M1370 900 c-53 -53 4 -141 74 -114 26 10 18 21 -12 16 -30 -4 -67 22
-57 39 4 5 26 9 51 9 42 0 45 2 39 23 -15 47 -61 61 -95 27z m68 -22 c3 -14
-3 -18 -26 -18 -35 0 -45 9 -30 27 15 19 52 12 56 -9z"/>
<path d="M1494 904 c3 -9 6 -40 6 -70 0 -30 5 -54 10 -54 6 0 10 20 10 44 0
47 22 81 46 72 8 -3 14 1 14 9 0 18 -14 19 -41 5 -13 -7 -19 -7 -19 0 0 5 -7
10 -16 10 -11 0 -14 -5 -10 -16z"/>
<path d="M1600 905 c-16 -20 -5 -50 25 -63 37 -17 33 -45 -5 -40 -16 3 -30 1
-30 -4 0 -14 28 -21 55 -14 35 9 35 58 0 74 -33 15 -33 42 1 42 14 0 23 4 19
10 -9 15 -51 12 -65 -5z"/>
<path d="M1703 906 c4 -10 7 -43 7 -74 0 -39 3 -53 11 -45 15 15 7 125 -10
131 -10 3 -12 0 -8 -12z"/>
<path d="M1860 910 c0 -6 11 -32 24 -58 24 -47 24 -48 5 -82 -21 -41 -23 -50
-9 -50 13 0 92 170 87 190 -2 9 -13 -3 -27 -30 l-23 -45 -19 43 c-17 39 -38
56 -38 32z"/>
<path d="M503 670 c0 -25 2 -35 4 -22 2 12 2 32 0 45 -2 12 -4 2 -4 -23z"/>
<path d="M180 675 c0 -5 5 -17 10 -25 5 -8 10 -10 10 -5 0 6 -5 17 -10 25 -5
8 -10 11 -10 5z"/>
<path d="M240 669 c0 -5 5 -7 10 -4 6 3 10 8 10 11 0 2 -4 4 -10 4 -5 0 -10
-5 -10 -11z"/>
<path d="M312 655 c0 -16 2 -22 5 -12 2 9 2 23 0 30 -3 6 -5 -1 -5 -18z"/>
<path d="M342 655 c0 -16 2 -22 5 -12 2 9 2 23 0 30 -3 6 -5 -1 -5 -18z"/>
<path d="M392 655 c0 -16 2 -22 5 -12 2 9 2 23 0 30 -3 6 -5 -1 -5 -18z"/>
<path d="M422 655 c0 -16 2 -22 5 -12 2 9 2 23 0 30 -3 6 -5 -1 -5 -18z"/>
<path d="M471 667 c-1 -10 -5 -15 -11 -12 -5 3 -10 0 -10 -9 0 -8 -2 -20 -3
-28 -2 -7 -2 -10 0 -5 7 11 31 8 36 -5 4 -10 6 -10 6 0 1 7 -6 15 -14 18 -12
5 -13 10 -4 20 6 7 9 19 6 26 -3 8 -6 6 -6 -5z"/>
<path d="M532 655 c0 -16 2 -22 5 -12 2 9 2 23 0 30 -3 6 -5 -1 -5 -18z"/>
<path d="M600 655 c0 -14 2 -25 4 -25 2 0 6 11 8 25 3 14 1 25 -3 25 -5 0 -9
-11 -9 -25z"/>
</g>
</svg>
