<?xml version="1.0" standalone="no"?>
<!DOCTYPE svg PUBLIC "-//W3C//DTD SVG 20010904//EN"
 "http://www.w3.org/TR/2001/REC-SVG-20010904/DTD/svg10.dtd">
<svg version="1.0" xmlns="http://www.w3.org/2000/svg"
 width="615.000000pt" height="223.000000pt" viewBox="0 0 615.000000 223.000000"
 preserveAspectRatio="xMidYMid meet">
<metadata>
Created by potrace 1.16, written by Peter Selinger 2001-2019
</metadata>
<g transform="translate(0.000000,223.000000) scale(0.100000,-0.100000)"
fill="#000000" stroke="none">
<path d="M2020 1989 c-52 -10 -117 -23 -145 -29 -27 -5 -198 -37 -380 -70
-347 -64 -385 -71 -505 -94 -101 -20 -210 -40 -360 -67 -69 -12 -129 -25 -133
-29 -4 -4 188 -138 428 -299 240 -161 437 -291 439 -289 3 5 220 252 226 258
10 9 134 145 165 180 68 79 351 397 379 428 l30 32 -25 -1 c-13 0 -67 -9 -119
-20z"/>
<path d="M690 1071 c0 -16 -9 -51 -21 -78 -44 -100 -129 -315 -129 -324 0 -5
10 -9 23 -9 19 0 28 11 49 63 l26 62 96 3 97 3 29 -66 c25 -55 33 -65 55 -65
14 0 25 6 24 13 0 6 -40 104 -88 217 l-88 205 -36 3 c-35 3 -37 2 -37 -27z"/>
<path d="M2245 1078 c4 -13 11 -94 14 -180 7 -174 13 -193 81 -230 50 -27 162
-22 206 9 56 40 64 72 64 258 l0 166 -27 -3 -28 -3 -5 -165 c-5 -176 -12 -204
-56 -220 -50 -19 -101 -12 -136 19 l-33 29 -5 169 -5 168 -39 3 c-37 3 -38 2
-31 -20z"/>
<path d="M4413 975 c-48 -56 -51 -65 -23 -65 19 0 20 -7 20 -104 0 -84 3 -108
18 -126 21 -25 89 -38 121 -21 22 12 30 57 9 48 -48 -17 -58 -17 -77 2 -18 18
-21 34 -21 111 l0 90 45 0 c33 0 47 5 52 16 8 21 -14 34 -59 34 -34 0 -37 2
-40 32 l-3 32 -42 -49z"/>
<path d="M1239 963 c-41 -45 -43 -48 -21 -51 21 -3 22 -7 22 -103 0 -98 1
-101 29 -130 20 -19 40 -29 60 -29 47 0 81 17 81 40 0 23 0 23 -36 10 -20 -8
-32 -7 -50 5 -22 14 -24 22 -24 110 l0 95 46 0 c41 0 45 2 42 23 -2 18 -10 23
-45 25 -38 3 -43 6 -43 28 0 35 -12 30 -61 -23z"/>
<path d="M1008 941 c-34 -27 -43 -66 -24 -96 9 -13 39 -36 67 -52 70 -37 82
-58 50 -84 -16 -13 -33 -18 -48 -15 -13 3 -34 9 -48 12 -21 5 -25 3 -25 -15 0
-59 147 -52 180 8 15 30 12 75 -7 95 -10 10 -40 30 -68 45 -53 28 -65 55 -33
75 12 7 29 7 58 -1 41 -10 41 -10 38 16 -3 24 -7 26 -59 29 -43 2 -61 -1 -81
-17z"/>
<path d="M1496 940 c-125 -80 -77 -273 72 -288 98 -9 172 57 172 153 0 59 -25
106 -72 135 -43 26 -131 26 -172 0z m133 -34 c33 -17 51 -54 51 -104 0 -47
-23 -80 -66 -98 -49 -20 -99 2 -120 52 -42 101 44 197 135 150z"/>
<path d="M1796 943 c5 -10 10 -78 12 -150 l3 -133 25 0 c24 0 24 0 24 104 0
98 1 105 26 130 31 31 74 34 97 8 13 -14 18 -44 21 -128 l3 -109 27 -3 26 -3
0 120 c0 114 -1 121 -26 150 -22 27 -32 31 -74 31 -32 0 -55 -6 -73 -20 -25
-20 -25 -20 -30 0 -4 15 -14 20 -37 20 -27 0 -31 -3 -24 -17z"/>
<path d="M2686 943 c5 -10 10 -78 12 -150 l3 -133 25 0 c24 0 24 0 24 104 0
104 0 104 31 130 35 29 70 33 93 10 16 -15 18 -35 20 -179 1 -58 2 -60 29 -63
l27 -3 0 116 c0 154 -16 184 -98 185 -28 0 -54 -7 -72 -20 -28 -20 -28 -20
-33 0 -4 15 -14 20 -37 20 -27 0 -31 -3 -24 -17z"/>
<path d="M3026 943 c5 -10 10 -78 12 -150 l3 -133 25 0 25 0 -3 148 -3 147
-34 3 c-30 3 -33 1 -25 -15z"/>
<path d="M3137 953 c-4 -3 -1 -13 7 -22 8 -9 39 -72 69 -141 31 -69 62 -126
69 -128 12 -2 132 260 129 283 0 6 -11 10 -22 10 -18 0 -28 -15 -55 -80 -19
-44 -34 -86 -34 -93 0 -32 -24 -1 -57 73 -19 44 -39 86 -45 93 -11 13 -50 16
-61 5z"/>
<path d="M3506 940 c-95 -62 -86 -222 14 -272 61 -31 180 -16 180 22 0 17 -6
18 -69 13 -68 -6 -71 -5 -100 25 -17 17 -31 40 -31 51 0 20 5 21 104 21 58 0
108 4 111 10 12 19 -17 94 -47 122 -25 23 -39 28 -82 28 -34 0 -61 -7 -80 -20z"/>
<path d="M3766 951 c-4 -5 -2 -12 4 -16 6 -4 10 -60 10 -141 l0 -134 30 0 30
0 0 93 c0 75 4 98 20 125 19 31 24 33 63 30 39 -2 42 -1 42 22 0 21 -5 25 -36
28 -27 2 -41 -3 -61 -23 l-26 -26 -4 23 c-2 18 -10 24 -35 26 -17 2 -34 -1
-37 -7z"/>
<path d="M4019 931 c-50 -50 -33 -91 56 -139 39 -21 51 -33 53 -54 5 -41 -34
-57 -88 -35 -35 14 -42 14 -47 1 -10 -27 6 -43 51 -49 58 -9 91 -1 122 30 29
29 31 74 6 104 -9 12 -40 34 -67 49 -53 29 -65 56 -33 76 12 7 29 7 58 -1 35
-9 42 -8 47 5 10 23 -26 42 -80 42 -40 0 -53 -5 -78 -29z"/>
<path d="M4246 943 c5 -10 10 -76 11 -148 l2 -130 26 -3 26 -3 -3 148 -3 148
-34 3 c-30 3 -33 1 -25 -15z"/>
<path d="M4590 951 c0 -6 5 -13 11 -17 12 -7 109 -207 109 -224 0 -6 -15 -43
-34 -83 -51 -110 -52 -117 -22 -117 22 0 30 12 66 88 107 225 162 353 157 358
-14 14 -56 -7 -65 -33 -25 -69 -58 -133 -69 -133 -7 0 -13 4 -13 10 0 15 -63
144 -75 152 -15 11 -65 10 -65 -1z"/>
<path d="M712 403 c3 -94 4 -98 27 -101 63 -9 107 37 78 82 -8 12 -12 35 -9
54 6 43 -12 62 -60 62 l-39 0 3 -97z"/>
<path d="M1389 419 c-13 -13 -18 -27 -14 -37 12 -29 13 -76 1 -95 -27 -43 52
-78 88 -38 23 26 14 49 -24 62 -37 13 -38 22 -5 37 14 6 25 15 26 19 0 5 2 23
3 41 3 29 1 32 -25 32 -16 0 -38 -9 -50 -21z"/>
</g>
</svg>
