<?xml version="1.0" standalone="no"?>
<!DOCTYPE svg PUBLIC "-//W3C//DTD SVG 20010904//EN"
 "http://www.w3.org/TR/2001/REC-SVG-20010904/DTD/svg10.dtd">
<svg version="1.0" xmlns="http://www.w3.org/2000/svg"
 width="1820.000000pt" height="1787.000000pt" viewBox="0 0 1820.000000 1787.000000"
 preserveAspectRatio="xMidYMid meet">
<metadata>
Created by potrace 1.16, written by Peter Selinger 2001-2019
</metadata>
<g transform="translate(0.000000,1787.000000) scale(0.100000,-0.100000)"
fill="#000000" stroke="none">
<path d="M8796 17749 c-249 -16 -489 -57 -661 -114 -70 -23 -129 -35 -195 -39
-564 -40 -1483 -319 -1810 -550 -25 -18 -74 -42 -110 -55 -220 -79 -394 -194
-585 -385 -77 -78 -161 -169 -185 -204 -42 -59 -53 -68 -162 -123 -64 -33
-156 -88 -205 -122 -97 -69 -282 -242 -340 -319 -29 -39 -56 -59 -118 -90
-351 -176 -611 -452 -751 -797 l-43 -105 -73 -49 c-403 -273 -656 -642 -732
-1067 -8 -47 -18 -115 -22 -152 -6 -62 -10 -71 -43 -99 -72 -63 -194 -206
-263 -308 -156 -233 -241 -463 -268 -729 -6 -51 -14 -101 -20 -111 -39 -74
-134 -670 -172 -1076 -20 -211 -16 -890 5 -1125 26 -279 38 -359 56 -381 14
-18 15 -33 7 -117 -25 -264 54 -611 197 -860 35 -61 43 -84 40 -112 -10 -81
232 -684 463 -1150 56 -113 110 -213 122 -223 11 -10 32 -19 47 -21 26 -3 31
-11 66 -112 127 -363 350 -645 674 -855 l114 -74 26 -67 c40 -103 109 -233
182 -342 70 -105 242 -292 325 -353 27 -19 47 -37 45 -40 -3 -2 -92 -11 -198
-19 -1089 -81 -2388 -311 -3449 -610 -197 -55 -709 -221 -722 -233 -4 -4 249
-96 563 -206 314 -110 575 -203 580 -206 5 -3 -69 -228 -164 -500 -96 -272
-171 -495 -168 -497 4 -1 77 23 162 53 824 298 2175 572 3294 670 692 60 1505
33 2285 -76 418 -59 815 -140 1230 -252 129 -35 237 -62 240 -60 2 2 -164 172
-369 377 l-373 373 124 33 c584 155 1131 219 1753 207 553 -11 989 -71 1506
-208 l121 -32 -371 -371 c-204 -204 -371 -374 -371 -377 0 -3 39 5 88 18 835
227 1471 332 2322 384 299 19 941 16 1205 -5 1183 -92 2564 -368 3459 -690 70
-25 132 -46 136 -46 4 0 -71 223 -167 497 -99 281 -170 499 -164 502 5 3 266
96 580 206 313 110 567 203 563 206 -12 12 -491 166 -689 223 -809 231 -1820
433 -2733 546 -379 46 -867 90 -1007 90 -35 0 -63 4 -63 9 0 4 17 20 38 35 55
38 231 219 287 296 73 100 148 234 200 355 l47 110 112 73 c325 212 548 494
675 856 35 101 40 109 66 112 15 2 36 11 47 21 44 39 321 631 453 968 105 266
137 366 131 404 -4 27 3 48 38 110 149 261 227 606 199 876 -7 69 -6 84 9 105
51 74 95 938 69 1350 -15 232 -44 496 -77 709 -31 200 -90 494 -104 520 -5 11
-15 63 -21 118 -30 271 -111 491 -268 724 -68 101 -178 230 -259 303 -37 34
-40 41 -46 104 -50 503 -308 920 -756 1220 -68 45 -77 55 -94 103 -54 157
-180 365 -300 496 -124 134 -299 264 -472 351 -48 24 -88 52 -99 69 -33 50
-208 224 -290 288 -102 79 -172 123 -293 184 -93 47 -100 53 -162 136 -36 48
-119 140 -185 204 -173 168 -360 288 -564 362 -35 12 -94 43 -130 67 -279 187
-919 402 -1501 502 -98 17 -206 43 -265 64 -293 103 -830 155 -1299 125z m602
-190 c198 -14 399 -43 537 -79 111 -29 236 -78 248 -97 8 -12 -102 -339 -176
-528 -294 -749 -593 -1190 -844 -1246 -194 -44 -426 114 -638 431 -199 300
-421 810 -529 1217 l-24 93 29 20 c130 93 447 168 819 193 114 8 445 6 578 -4z
m-1618 -183 c0 -72 120 -459 224 -726 110 -281 342 -713 439 -817 11 -13 18
-25 16 -28 -8 -7 -156 40 -364 117 -524 194 -1055 457 -1443 715 -137 90 -316
227 -355 271 -18 20 -18 21 48 57 258 145 838 331 1275 409 170 30 160 30 160
2z m2800 -41 c399 -89 798 -222 1050 -350 116 -59 115 -52 19 -132 -345 -290
-936 -619 -1544 -859 -185 -73 -385 -145 -385 -139 0 2 27 46 60 97 73 112
227 414 303 593 96 225 216 560 293 813 5 18 33 15 204 -23z m-4420 -541 c95
-97 377 -305 563 -415 31 -18 57 -36 57 -39 0 -12 -78 -81 -170 -149 -81 -61
-346 -208 -357 -198 -1 2 20 72 47 155 28 84 50 162 50 174 0 42 -39 104 -80
127 -78 43 -426 45 -660 2 -58 -10 -106 -18 -108 -16 -1 1 32 34 73 74 86 81
207 173 292 222 61 35 221 108 238 108 6 1 31 -20 55 -45z m5820 16 c160 -66
316 -169 455 -301 41 -40 74 -73 73 -74 -2 -2 -50 6 -108 16 -234 43 -582 41
-660 -2 -42 -24 -80 -85 -80 -130 0 -13 23 -91 50 -173 28 -82 49 -151 47
-153 -11 -10 -276 136 -357 198 -93 69 -170 137 -170 149 0 4 18 17 41 29 157
88 444 297 554 403 38 37 73 68 76 68 3 0 39 -13 79 -30z m-5877 -516 c44 -6
46 -8 41 -33 -15 -61 -101 -275 -156 -384 l-59 -118 -67 -29 c-306 -133 -527
-320 -719 -607 -50 -75 -82 -113 -98 -117 -13 -3 -29 -8 -37 -11 -10 -4 -3 28
23 107 68 202 118 530 107 689 -7 102 -75 150 -184 130 -111 -21 -106 -13 66
104 259 175 581 269 931 274 58 0 127 -2 152 -5z m6257 -23 c273 -48 493 -141
699 -294 44 -33 79 -62 77 -65 -3 -2 -36 1 -75 8 -66 11 -74 10 -115 -10 -57
-27 -76 -66 -76 -157 0 -188 46 -462 109 -651 26 -79 33 -111 23 -107 -8 3
-24 8 -37 11 -16 4 -48 42 -99 117 -191 286 -414 475 -718 607 l-67 29 -59
118 c-55 109 -141 322 -156 385 -5 24 -3 27 26 31 75 11 356 -2 468 -22z
m-5080 -192 c140 -70 317 -152 392 -184 118 -50 136 -60 128 -75 -14 -25 -186
-174 -279 -240 -186 -133 -431 -231 -658 -264 l-41 -6 38 86 c21 47 55 136 76
198 l38 113 -18 46 c-33 86 -112 109 -388 110 l-167 1 92 49 c108 58 187 110
281 185 53 42 89 61 155 83 47 16 88 27 91 26 3 -2 120 -59 260 -128z m3822
95 c44 -15 90 -41 135 -77 93 -74 180 -132 288 -190 l90 -48 -90 6 c-96 6
-313 -8 -376 -25 -51 -14 -96 -60 -104 -107 -7 -42 44 -204 109 -346 l35 -77
-42 6 c-316 45 -626 203 -877 445 l-75 72 55 24 c271 119 439 197 575 267 174
90 164 89 277 50z m-2897 -480 c105 -36 268 -87 364 -114 109 -31 204 -65 252
-90 221 -115 433 -94 620 61 39 32 86 51 315 127 l269 89 90 -91 c313 -316
673 -494 1088 -536 61 -6 84 -12 92 -25 5 -10 35 -53 65 -96 176 -249 383
-429 644 -560 l120 -60 36 -93 c89 -226 249 -461 421 -621 l65 -60 12 -102
c46 -398 192 -719 457 -1001 l72 -77 -19 -105 c-22 -127 -27 -388 -9 -505 18
-112 57 -267 92 -355 16 -41 29 -78 29 -82 0 -3 -13 -9 -30 -13 -56 -12 -70
-44 -70 -164 -1 -303 -53 -739 -120 -1002 -67 -262 -200 -645 -304 -878 -31
-69 -56 -136 -56 -150 0 -15 12 -44 26 -64 14 -21 24 -40 22 -42 -1 -1 -49
-37 -105 -79 -188 -141 -357 -330 -466 -521 -49 -85 -117 -248 -139 -329 -11
-42 -18 -51 -48 -63 -146 -60 -234 -101 -312 -144 -204 -116 -406 -295 -532
-474 -75 -105 -58 -96 -221 -110 -115 -11 -272 -44 -399 -86 -66 -22 -123 -36
-127 -32 -10 11 -120 363 -184 588 -235 830 -415 1799 -534 2870 -104 926
-153 1597 -149 2000 2 167 -1 210 -15 259 -13 40 -24 60 -37 63 -14 4 14 22
93 61 101 50 122 66 212 156 80 80 110 118 142 181 62 123 103 268 103 373 l0
32 -472 1 c-443 0 -471 1 -448 17 46 30 109 102 135 152 42 82 59 164 58 280
-1 123 -19 220 -73 382 -40 121 -147 358 -161 358 -10 0 -80 -145 -129 -270
-163 -409 -135 -740 74 -891 l39 -29 -471 0 -472 0 0 -45 c0 -62 26 -184 56
-264 74 -197 245 -372 450 -460 38 -17 61 -30 51 -31 -43 0 -73 -170 -62 -350
22 -377 -117 -1896 -261 -2849 -134 -890 -326 -1736 -549 -2422 -37 -112 -71
-208 -75 -212 -4 -5 -45 8 -90 27 -169 75 -378 126 -590 145 -98 9 -106 12
-125 37 -139 191 -223 283 -354 387 -140 111 -281 192 -469 270 l-103 42 -34
103 c-107 317 -303 583 -590 799 -55 42 -102 77 -103 78 -2 2 8 21 22 42 14
20 26 49 26 63 0 14 -24 80 -54 145 -106 236 -240 624 -306 885 -72 285 -119
683 -120 996 0 125 -13 157 -70 169 -17 4 -30 10 -30 14 0 4 11 34 24 67 26
65 70 218 86 304 32 170 31 419 -4 603 l-14 71 75 81 c269 288 423 633 459
1031 l7 71 64 58 c167 149 323 377 418 610 l42 104 119 60 c251 126 449 294
619 526 28 39 61 86 73 106 23 39 44 49 103 49 65 0 256 39 366 75 139 45 344
148 455 228 114 82 256 206 314 274 33 38 51 52 63 48 9 -4 102 -36 206 -71z
m-3239 -50 c-18 -286 -93 -555 -212 -769 -45 -80 -45 -80 -111 -104 -159 -55
-350 -161 -516 -287 -53 -41 -99 -74 -101 -74 -2 0 -7 26 -11 58 -8 69 -66
300 -90 360 -10 23 -31 52 -49 64 -17 12 -32 23 -34 24 -7 4 73 153 120 221
190 282 500 491 873 588 50 13 101 24 114 25 l24 0 -7 -106z m8174 91 c174
-41 396 -137 539 -233 192 -129 351 -307 452 -506 l40 -78 -22 -16 c-46 -32
-59 -53 -84 -136 -32 -106 -75 -292 -75 -328 0 -16 -3 -28 -8 -28 -4 0 -32 20
-62 45 -142 118 -396 263 -550 316 l-69 23 -50 91 c-119 217 -191 479 -207
756 -8 126 -15 119 96 94z m-6364 -57 c16 -17 -113 -314 -197 -453 -99 -163
-249 -337 -385 -446 -64 -50 -235 -162 -240 -156 -2 2 5 48 16 103 25 129 45
351 36 399 -9 46 -50 90 -98 103 -65 18 -344 -38 -505 -102 -75 -29 -74 -25
15 78 216 249 524 414 878 471 93 15 465 17 480 3z m5015 -17 c328 -71 587
-219 797 -455 95 -107 95 -107 -15 -69 -194 68 -407 109 -471 91 -48 -13 -89
-57 -98 -104 -11 -61 20 -354 52 -478 l7 -30 -49 29 c-225 130 -433 335 -574
565 -77 127 -210 417 -210 459 0 16 47 19 260 16 161 -3 226 -8 301 -24z
m-5961 -644 c0 -112 -47 -367 -97 -522 -68 -211 -190 -432 -315 -569 l-54 -59
-12 115 c-7 64 -15 130 -18 147 -9 43 -52 87 -98 99 -42 12 -102 -3 -234 -57
l-72 -30 0 97 c0 88 -10 206 -26 333 l-6 46 73 62 c197 166 452 292 713 351
45 10 96 19 114 19 30 1 32 -1 32 -32z m6492 13 c263 -58 518 -183 717 -351
l73 -62 -6 -46 c-16 -127 -26 -246 -26 -334 l0 -97 -37 16 c-21 9 -81 32 -133
50 -80 28 -102 32 -129 24 -86 -25 -105 -60 -122 -236 l-13 -131 -54 61 c-162
182 -296 453 -361 736 -22 90 -51 298 -51 356 0 31 3 34 28 34 15 0 66 -9 114
-20z m-8514 -391 c50 -186 65 -303 66 -509 0 -147 -4 -217 -17 -285 -28 -140
-71 -270 -131 -390 -47 -96 -61 -116 -113 -156 -32 -26 -101 -90 -154 -143
l-95 -96 -19 77 c-43 187 -159 479 -202 513 -33 26 -90 36 -127 22 -16 -7 -31
-10 -32 -9 -6 6 29 156 52 226 103 309 346 604 654 795 41 25 79 45 85 43 5
-2 20 -41 33 -88z m10512 45 c359 -223 609 -561 690 -934 11 -46 17 -86 15
-88 -2 -2 -12 1 -23 7 -32 17 -84 13 -120 -9 -25 -16 -43 -42 -71 -103 -57
-123 -105 -259 -137 -384 l-29 -112 -115 113 c-63 62 -132 125 -153 141 -72
54 -176 295 -219 507 -29 146 -31 436 -4 593 16 96 62 291 72 307 8 13 16 10
94 -38z m-9592 -179 c17 -136 26 -351 18 -415 l-8 -55 -81 -57 c-232 -163
-408 -364 -522 -599 -34 -71 -46 -87 -51 -73 -41 111 -76 156 -132 169 l-28 6
33 99 c48 144 72 265 84 440 l12 155 36 38 c81 86 239 203 385 282 75 42 215
105 232 105 6 0 16 -40 22 -95z m8717 36 c172 -82 321 -182 450 -303 l62 -58
7 -122 c10 -169 39 -330 84 -464 l38 -113 -28 -6 c-56 -13 -91 -58 -132 -169
-5 -14 -17 2 -51 73 -114 235 -290 436 -522 599 -77 54 -82 60 -89 102 -9 55
1 292 17 423 l12 98 26 -6 c14 -3 71 -28 126 -54z m-8258 -568 c14 -154 7
-415 -16 -544 -50 -285 -175 -548 -358 -753 l-41 -47 -18 48 c-34 96 -107 260
-146 331 -44 81 -82 112 -136 112 -52 0 -94 -25 -186 -111 -46 -43 -86 -79
-89 -79 -3 0 -8 22 -12 49 -14 100 102 372 231 544 127 170 341 345 544 445
78 38 195 89 212 91 3 1 10 -38 15 -86z m7861 -5 c205 -101 418 -274 548 -447
125 -166 243 -449 228 -548 -3 -24 -8 -43 -11 -43 -3 0 -43 36 -91 80 -94 87
-132 110 -185 110 -63 0 -96 -34 -164 -169 -34 -68 -74 -158 -89 -200 -15 -42
-31 -87 -36 -101 -9 -24 -9 -24 -51 24 -189 218 -308 470 -358 755 -23 128
-30 389 -16 543 l9 87 66 -25 c37 -13 104 -43 150 -66z m-9964 -564 c95 -228
136 -411 143 -650 8 -260 -20 -425 -108 -633 -62 -147 -49 -141 -171 -81 -56
28 -205 106 -330 173 l-228 122 0 35 c0 61 28 221 55 315 34 120 139 330 220
438 36 48 100 124 142 168 76 79 216 199 233 199 4 0 24 -39 44 -86z m11970
26 c41 -33 112 -100 158 -149 239 -254 377 -551 403 -866 l7 -80 -229 -122
c-218 -116 -428 -223 -437 -223 -9 0 -79 158 -106 240 -101 302 -97 660 11
997 38 117 98 263 109 263 5 0 43 -27 84 -60z m-11107 -284 c36 -106 77 -268
89 -349 6 -45 4 -51 -49 -130 -174 -258 -263 -523 -274 -813 l-6 -151 -116 47
c-201 81 -381 162 -381 172 0 5 13 35 30 68 100 199 159 460 160 706 l0 121
78 94 c92 111 218 229 333 311 96 68 84 75 136 -76z m10279 56 c111 -83 215
-182 304 -289 l77 -93 6 -172 c8 -246 58 -456 153 -651 19 -39 34 -73 34 -77
0 -8 -196 -95 -381 -170 l-116 -47 -6 151 c-11 290 -100 555 -273 812 -30 44
-54 91 -54 105 0 60 66 309 116 441 30 79 20 79 140 -10z m-9711 -384 c212
-450 241 -885 83 -1296 l-31 -84 -33 7 c-90 16 -613 175 -643 194 -21 13 -19
257 2 377 36 200 128 416 255 594 67 94 280 320 302 320 6 0 35 -51 65 -112z
m9168 -1 c233 -235 383 -511 433 -797 21 -123 23 -368 3 -381 -30 -19 -554
-178 -643 -195 l-33 -6 -35 94 c-126 330 -128 683 -8 1049 44 133 143 349 160
349 7 0 62 -51 123 -113z m-4553 -712 c287 -2575 568 -4559 725 -5130 l24 -89
-56 -65 c-32 -36 -58 -68 -60 -70 -1 -2 -58 15 -125 37 -148 49 -236 67 -390
83 -258 25 -577 -36 -849 -163 -87 -40 -90 -41 -104 -22 -7 10 -27 37 -43 59
l-30 39 19 48 c48 122 136 532 213 993 160 957 412 2873 603 4600 10 87 19
153 20 145 2 -8 26 -217 53 -465z m-6614 -56 c601 -326 1165 -562 1729 -723
l190 -54 -35 -15 c-157 -66 -468 -161 -708 -217 -431 -100 -857 -150 -1286
-150 l-198 0 6 118 c13 214 27 375 52 572 28 224 84 550 94 550 4 0 74 -36
156 -81z m13146 40 c60 -285 109 -678 134 -1091 l6 -108 -198 0 c-522 0 -1054
76 -1559 221 -151 43 -428 137 -457 155 -6 4 74 31 178 61 556 157 1141 402
1714 716 85 47 159 84 165 83 5 -1 13 -18 17 -37z m-10997 -1310 c15 -161 60
-440 94 -586 l19 -83 -97 -30 c-608 -187 -1314 -276 -1916 -241 -187 11 -491
44 -502 55 -14 14 -53 551 -53 734 l0 72 204 0 c474 0 943 59 1423 180 202 50
526 156 703 228 l95 39 8 -106 c4 -58 14 -176 22 -262z m9142 206 c542 -181
1195 -285 1789 -285 l204 0 0 -59 c0 -174 -40 -734 -53 -747 -11 -11 -315 -44
-502 -55 -603 -35 -1308 54 -1917 242 -81 25 -98 33 -94 47 52 165 113 588
132 903 l6 116 136 -54 c74 -29 209 -78 299 -108z m-8829 -1477 c23 -58 61
-151 85 -207 l45 -100 -129 -171 c-514 -686 -1123 -1190 -1791 -1485 -83 -36
-154 -63 -159 -58 -13 13 -190 391 -275 589 -103 240 -196 486 -187 494 4 4
49 17 98 30 219 55 537 182 827 329 545 276 1018 633 1278 964 l53 69 57 -174
c32 -95 76 -221 98 -280z m8259 390 c123 -162 382 -400 618 -569 446 -320
1057 -619 1490 -729 50 -13 93 -26 97 -30 10 -7 -84 -255 -185 -491 -76 -177
-263 -578 -276 -592 -9 -9 -96 26 -266 107 -646 309 -1247 829 -1737 1505
l-75 103 42 97 c57 128 165 420 206 554 18 59 34 107 35 107 2 0 24 -28 51
-62z m-8864 -148 c-61 -59 -268 -230 -277 -230 -6 0 -76 179 -76 193 0 9 45
22 138 41 75 15 169 35 207 45 39 11 72 19 75 20 3 0 -27 -31 -67 -69z m9524
-6 c67 -12 93 -20 93 -31 0 -12 -67 -183 -75 -191 -5 -6 -249 195 -298 246
l-49 49 119 -28 c65 -15 159 -36 210 -45z m-9987 -210 c22 -50 40 -98 40 -105
0 -25 -322 -220 -560 -339 l-118 -59 -32 76 c-56 134 -100 348 -100 484 l0 47
128 7 c132 7 407 30 502 43 l55 8 22 -36 c13 -19 41 -76 63 -126z m10502 137
c112 -11 260 -23 331 -26 l127 -7 0 -47 c0 -143 -42 -346 -101 -486 l-31 -74
-116 58 c-222 112 -562 315 -562 337 0 17 49 133 87 207 23 43 41 66 49 63 7
-3 104 -14 216 -25z m-11877 -6 c77 -7 209 -17 293 -21 l152 -7 0 -51 c0 -141
45 -373 98 -505 20 -51 23 -70 16 -98 -8 -31 -17 -38 -79 -65 -90 -38 -373
-132 -448 -149 -69 -15 -61 -22 -141 132 -70 134 -120 285 -140 420 -16 109
-21 281 -10 339 l7 32 56 -6 c31 -4 119 -13 196 -21z m13199 3 c11 -43 6 -241
-10 -347 -19 -135 -69 -283 -139 -419 -80 -154 -73 -148 -142 -132 -87 19
-284 84 -408 134 -143 57 -143 58 -87 228 49 148 69 252 78 397 l7 108 216 12
c119 7 261 19 316 26 154 19 162 19 169 -7z m-10469 -785 c176 -132 339 -315
434 -487 37 -67 101 -209 101 -225 0 -3 -17 -6 -39 -6 -43 -1 -83 -23 -107
-59 -36 -56 -38 -356 -4 -535 5 -30 8 -56 6 -58 -2 -2 -30 9 -62 25 -33 16
-116 51 -187 78 -124 47 -129 49 -186 113 -201 228 -309 467 -342 757 l-12
102 59 69 c33 37 99 119 147 181 49 61 91 112 95 112 4 0 48 -30 97 -67z
m7716 -99 c74 -92 140 -175 148 -186 12 -17 12 -35 -2 -137 -42 -301 -161
-548 -359 -751 -47 -48 -66 -59 -148 -88 -52 -19 -133 -52 -179 -73 -46 -22
-86 -38 -88 -36 -2 2 1 27 7 55 33 178 31 483 -4 537 -24 37 -64 59 -107 60
-22 0 -39 4 -39 9 0 5 19 51 41 103 77 175 199 346 341 478 68 64 236 195 249
195 3 0 66 -75 140 -166z m-8190 -644 c55 -147 134 -298 200 -381 l30 -38 -35
-15 c-65 -27 -76 -60 -75 -226 0 -80 6 -182 13 -227 6 -46 10 -83 9 -83 -2 0
-49 13 -104 30 -117 35 -274 66 -379 76 l-75 6 -62 92 c-34 50 -103 137 -152
193 -80 91 -92 110 -111 174 -21 68 -21 73 -4 82 44 25 323 258 449 376 l140
130 68 -67 c49 -49 73 -81 88 -122z m8876 -78 c90 -78 272 -224 312 -249 2 -1
-8 -36 -22 -77 -22 -65 -37 -89 -112 -173 -47 -54 -114 -139 -148 -189 l-62
-92 -75 -6 c-105 -10 -262 -41 -379 -76 -55 -17 -102 -30 -104 -30 -1 0 3 37
9 83 7 45 13 147 13 227 1 165 -10 199 -74 226 l-35 14 44 60 c52 70 132 224
175 335 26 66 42 92 97 147 l67 68 88 -83 c49 -45 142 -128 206 -185z m-7665
-135 c182 -70 386 -192 527 -316 61 -53 201 -208 201 -223 0 -3 -17 -15 -37
-25 -22 -12 -45 -35 -57 -58 -18 -35 -19 -44 -8 -107 30 -171 138 -438 246
-603 31 -47 54 -85 52 -85 -1 0 -27 8 -57 19 -70 24 -259 68 -329 76 -45 6
-73 19 -152 71 -384 254 -598 675 -598 1174 l0 148 73 -22 c39 -13 102 -35
139 -49z m6215 -132 c-4 -116 -12 -201 -26 -267 -61 -280 -197 -529 -391 -712
-93 -87 -266 -206 -299 -206 -51 0 -324 -65 -404 -96 -12 -4 1 22 38 80 107
164 218 434 246 602 12 65 11 74 -7 109 -11 21 -35 46 -53 56 -18 9 -35 20
-38 23 -10 9 103 141 180 211 41 37 112 94 158 127 104 74 349 196 489 242 93
30 105 32 109 18 2 -9 1 -93 -2 -187z m-8378 -172 c69 -52 204 -189 273 -277
83 -108 100 -138 93 -169 -15 -60 48 -359 110 -519 19 -49 35 -91 35 -92 0 0
-105 0 -232 2 -260 3 -281 -1 -324 -64 l-21 -32 -72 55 c-233 177 -424 452
-509 737 l-20 67 22 9 c118 44 399 188 530 271 34 20 65 38 70 38 5 1 25 -11
45 -26z m10443 -11 c125 -77 294 -166 422 -223 103 -46 130 -63 128 -76 -2
-10 -15 -52 -29 -93 -96 -282 -275 -529 -511 -706 l-56 -42 -21 32 c-42 63
-63 67 -323 64 -127 -2 -232 -2 -232 -2 0 1 16 43 35 92 63 165 125 456 110
524 -5 23 3 42 50 108 31 44 93 119 138 167 80 84 203 193 219 193 4 0 36 -17
70 -38z m-9045 -108 c205 -62 463 -190 490 -244 7 -14 37 -77 67 -140 69 -147
156 -269 278 -391 l97 -98 -28 -9 c-37 -13 -69 -48 -80 -88 -12 -44 16 -189
67 -341 22 -65 38 -120 37 -121 -3 -4 -124 42 -255 96 -163 68 -330 183 -461
319 -230 239 -362 562 -376 926 l-6 138 29 -7 c16 -4 79 -22 141 -40z m7700
-91 c-13 -285 -94 -540 -243 -764 -105 -159 -320 -346 -505 -440 -66 -33 -339
-142 -344 -137 -2 2 10 42 26 88 39 110 79 277 81 333 1 57 -26 103 -73 124
l-37 16 87 86 c141 139 259 313 326 481 16 41 36 80 45 87 35 28 202 115 292
153 81 34 313 108 342 110 5 0 6 -58 3 -137z m-5793 -219 c343 -50 629 -186
854 -407 85 -84 162 -176 162 -194 0 -6 -26 -26 -58 -46 -85 -53 -97 -69 -97
-136 l0 -57 -159 -18 c-88 -9 -224 -26 -303 -37 l-143 -21 -69 51 c-94 70
-237 222 -304 323 -102 155 -206 393 -233 533 l-7 38 129 -7 c71 -4 174 -14
228 -22z m4070 -11 c-24 -134 -134 -387 -232 -531 -68 -103 -181 -225 -278
-302 l-72 -57 -53 8 c-172 27 -698 79 -805 79 -29 0 -54 4 -54 8 0 16 101 177
155 248 127 166 340 337 526 423 219 101 467 154 752 160 l68 1 -7 -37z
m-6701 -78 c131 -20 273 -56 384 -97 l87 -33 36 -95 c142 -376 390 -645 768
-834 71 -36 92 -59 92 -104 0 -25 -321 -128 -333 -106 -63 112 -290 343 -434
442 -152 103 -352 194 -511 232 -46 11 -55 17 -73 51 -67 132 -139 364 -154
497 -8 73 -18 70 138 47z m9127 -4 c0 -44 -43 -239 -71 -321 -16 -49 -47 -126
-68 -173 l-39 -85 -53 -12 c-133 -31 -331 -116 -454 -192 -141 -89 -336 -269
-435 -401 -28 -38 -49 -57 -59 -54 -9 2 -85 26 -169 53 -192 61 -193 65 -38
147 367 193 595 447 736 817 l36 95 86 32 c107 40 223 71 358 93 145 25 170
25 170 1z m-4266 -407 c73 -12 272 -68 284 -79 2 -2 -20 -43 -47 -92 l-51 -89
-138 -17 c-100 -12 -251 -18 -557 -22 -231 -2 -474 -9 -539 -15 -116 -9 -146
-5 -146 20 0 12 141 92 270 154 311 148 610 193 924 140z m-2849 -250 c184
-27 330 -72 495 -152 63 -30 110 -57 105 -58 -6 -2 -111 -23 -235 -48 -124
-25 -296 -63 -383 -84 l-158 -39 -15 36 c-49 112 -73 190 -108 345 l-7 28 103
-7 c57 -4 148 -13 203 -21z m5259 -1 c-24 -107 -47 -189 -69 -248 -43 -114
-26 -107 -167 -73 -105 25 -477 101 -603 123 l-40 7 59 30 c219 111 500 178
779 187 47 1 47 1 41 -26z m-7366 -57 c322 -60 567 -180 783 -384 58 -54 188
-208 197 -232 2 -4 -43 -26 -100 -48 -144 -56 -448 -187 -541 -234 l-79 -39
-69 41 c-223 132 -394 315 -527 560 -43 80 -100 221 -126 309 l-16 54 198 -6
c109 -3 234 -12 280 -21z m9636 -28 c-71 -245 -212 -486 -384 -658 -90 -90
-249 -210 -278 -210 -8 0 -84 32 -169 70 -86 39 -249 107 -362 152 -113 45
-210 85 -215 89 -12 11 89 134 178 216 238 220 522 343 901 387 17 1 101 4
187 5 l157 1 -15 -52z m-4434 -158 c1301 -67 2603 -373 3605 -849 l129 -61
-70 -51 c-426 -310 -992 -626 -1463 -818 l-104 -43 -56 22 c-778 305 -1484
449 -2342 479 -968 34 -1899 -116 -2757 -445 l-142 -55 -138 56 c-193 80 -627
296 -822 411 -206 121 -597 377 -664 435 -11 10 104 67 334 166 982 424 2149
685 3360 752 214 12 905 12 1130 1z m-4972 -1043 c460 -347 1015 -667 1527
-881 140 -59 678 -316 672 -322 -1 -1 -25 2 -52 7 -80 15 -397 57 -562 74
-1123 116 -2081 71 -3348 -160 -592 -108 -1351 -290 -1677 -404 -32 -11 -58
-18 -58 -17 0 2 63 185 141 406 77 221 139 403 137 404 -1 2 -181 65 -398 141
-217 76 -399 141 -403 145 -19 17 763 219 1235 319 496 106 1109 209 1603 270
376 47 823 87 998 90 l87 1 98 -73z m9272 58 c947 -71 2042 -252 3020 -501
340 -86 583 -155 573 -164 -4 -4 -187 -70 -405 -146 -219 -76 -398 -143 -397
-149 0 -5 62 -185 138 -400 75 -214 134 -391 131 -393 -4 -1 -83 20 -176 48
-860 260 -1982 471 -2944 555 -715 62 -1554 33 -2360 -80 -96 -14 -186 -27
-200 -30 -38 -7 468 239 620 302 283 116 727 343 1000 511 192 118 544 360
640 440 31 27 81 28 360 7z"/>
<path d="M8965 5745 c-11 -153 -2 -321 19 -370 38 -88 101 -125 216 -125 88 0
142 21 183 69 44 52 55 116 59 326 l3 190 -67 3 -68 3 -1 -168 c0 -205 -8
-256 -42 -290 -28 -29 -95 -36 -122 -13 -40 33 -45 63 -45 270 l0 200 -34 0
c-18 0 -47 3 -64 6 l-30 6 -7 -107z"/>
<path d="M8545 5828 c-88 -5 -163 -13 -167 -16 -3 -4 -4 -31 -1 -60 l6 -52 77
6 77 7 7 -134 c3 -74 9 -181 13 -238 l6 -103 64 5 c35 2 66 7 68 9 4 4 -8 261
-19 406 l-5 62 57 0 c96 0 102 4 102 66 l0 54 -62 -2 c-35 0 -135 -5 -223 -10z"/>
<path d="M9586 5793 c-13 -80 -14 -79 65 -86 39 -3 74 -8 77 -11 4 -4 -20
-342 -31 -446 -2 -11 14 -17 61 -24 34 -5 65 -7 67 -4 4 4 45 418 45 455 0 8
23 10 79 6 l78 -6 7 53 c4 29 6 54 4 55 -2 2 -82 11 -178 19 -96 9 -196 18
-221 21 l-46 5 -7 -37z"/>
<path d="M8143 5793 c-18 -2 -33 -10 -33 -16 -1 -7 12 -137 27 -291 l28 -278
62 4 c34 2 65 7 68 10 5 5 -37 463 -51 546 -5 34 -12 36 -101 25z"/>
<path d="M7725 5738 c-104 -16 -191 -31 -193 -33 -2 -2 -1 -27 3 -54 7 -49 8
-51 38 -51 18 1 52 5 77 10 25 4 46 7 47 6 1 -1 18 -104 37 -230 19 -125 36
-229 38 -231 4 -4 121 15 126 20 4 4 -55 426 -63 451 -2 8 24 16 73 23 42 6
77 13 79 15 2 2 0 25 -4 52 -8 45 -11 49 -38 51 -17 1 -115 -12 -220 -29z"/>
<path d="M10176 5748 c-12 -54 -87 -551 -83 -554 2 -2 85 -17 185 -32 l182
-28 5 30 c14 87 23 78 -104 98 -63 10 -116 20 -118 21 -8 8 21 127 31 127 6 0
52 -7 101 -14 50 -8 92 -12 94 -10 6 5 21 97 17 102 -3 2 -50 11 -106 19
l-101 16 6 51 c4 28 10 54 14 57 3 4 54 -1 113 -10 l106 -17 6 29 c3 16 6 42
6 56 l0 27 -152 23 c-84 13 -163 25 -175 28 -17 4 -23 0 -27 -19z"/>
<path d="M7231 5655 c-104 -29 -160 -82 -168 -160 -11 -95 35 -152 147 -180
36 -9 82 -21 103 -26 43 -11 68 -49 51 -77 -22 -36 -75 -53 -151 -49 l-73 4 0
-59 0 -58 38 -1 c108 -5 188 13 242 52 57 41 80 83 80 144 0 102 -55 153 -196
180 -87 17 -120 39 -109 74 10 33 56 51 129 51 l64 0 4 53 c2 28 3 54 1 56 -9
12 -115 9 -162 -4z"/>
<path d="M11067 5566 c-115 -43 -189 -147 -203 -285 -18 -172 107 -304 287
-304 69 0 154 38 195 86 78 93 107 254 64 355 -39 91 -132 151 -244 158 -37 3
-76 -1 -99 -10z m170 -121 c78 -51 68 -230 -18 -316 -35 -35 -44 -39 -90 -39
-44 0 -55 4 -84 33 -40 40 -51 94 -35 170 29 141 135 212 227 152z"/>
<path d="M6790 5543 c-25 -9 -46 -17 -48 -19 -5 -3 74 -262 97 -322 18 -46 14
-43 -134 105 -89 89 -160 153 -171 153 -11 0 -46 -9 -79 -19 -44 -14 -59 -23
-57 -35 3 -16 71 -245 133 -448 l29 -97 53 16 c28 8 55 17 59 19 7 4 -19 96
-78 274 -19 58 -34 108 -34 112 0 3 55 -50 123 -119 67 -69 143 -142 168 -163
l45 -39 57 18 c31 9 59 20 63 23 10 10 -157 558 -170 557 -6 0 -31 -8 -56 -16z"/>
<path d="M11655 5420 c-10 -16 -203 -535 -201 -538 2 -1 30 -13 63 -26 l61
-24 37 102 c21 55 40 105 44 109 4 4 49 -8 100 -28 51 -19 94 -35 96 -35 5 0
38 101 34 104 -2 1 -44 17 -94 36 -49 18 -91 34 -93 35 -7 6 41 115 51 115 7
0 54 -16 106 -36 51 -19 94 -34 95 -32 8 11 37 100 35 102 -2 2 -47 19 -99 39
-52 19 -125 47 -162 61 -39 14 -70 21 -73 16z"/>
<path d="M6143 5327 c-29 -12 -53 -25 -53 -29 0 -12 201 -522 209 -530 9 -10
121 34 121 47 0 21 -206 529 -215 531 -6 1 -34 -8 -62 -19z"/>
<path d="M4470 4923 c0 -28 37 -305 45 -338 5 -23 -2 -15 -30 30 -20 33 -77
116 -126 185 l-90 125 -74 -3 -75 -4 0 -36 c1 -54 55 -511 62 -517 3 -3 31 -3
62 1 l57 7 -6 41 c-3 23 -12 97 -20 166 -8 69 -18 139 -21 155 -4 21 21 -10
83 -100 49 -71 109 -158 134 -193 l44 -63 65 6 c35 3 66 8 69 10 4 5 -47 484
-56 523 -5 20 -11 22 -64 22 -50 0 -59 -3 -59 -17z"/>
<path d="M3681 4869 c-30 -5 -56 -11 -58 -13 -6 -6 -73 -560 -68 -564 3 -3 33
-1 67 4 l63 9 8 72 c10 80 -1 72 119 89 l47 6 33 -67 33 -67 65 7 c36 4 68 10
71 13 4 4 -55 122 -130 262 -153 287 -135 269 -250 249z"/>
<path d="M3237 4800 c-20 -4 -39 -9 -41 -11 -3 -4 36 -186 95 -448 l21 -93 62
7 c33 3 62 8 64 10 2 2 -22 125 -54 274 -66 304 -52 280 -147 261z"/>
<path d="M2720 4716 c-117 -25 -150 -36 -150 -52 0 -28 113 -509 122 -519 12
-13 188 18 263 46 73 27 145 96 163 155 41 138 -32 311 -150 359 -57 23 -168
28 -248 11z m185 -115 c44 -25 77 -91 82 -164 4 -53 2 -67 -19 -97 -27 -40
-98 -80 -143 -80 l-31 0 -38 170 c-22 94 -36 173 -33 176 27 27 133 24 182 -5z"/>
<path d="M2327 4643 c-16 -3 -30 -10 -33 -18 -4 -11 56 -262 81 -340 5 -14 -1
-11 -17 10 -35 45 -93 111 -185 211 l-84 91 -72 -14 c-40 -9 -73 -16 -75 -18
-1 -1 27 -123 63 -272 l66 -269 60 9 c32 5 59 13 59 16 0 3 -22 91 -49 195
-38 151 -44 184 -29 165 11 -13 80 -92 155 -175 l135 -151 66 14 c36 7 66 15
67 16 1 1 -28 122 -64 270 -72 298 -58 273 -144 260z"/>
<path d="M1721 4526 c-30 -6 -56 -16 -58 -22 -4 -12 121 -521 130 -530 3 -3
32 0 66 7 54 10 60 14 56 33 -27 122 -128 512 -133 517 -4 3 -31 1 -61 -5z"/>
<path d="M13453 4890 c-95 -20 -153 -67 -173 -140 -21 -79 29 -138 154 -184
73 -26 86 -37 86 -73 0 -48 -98 -68 -193 -39 l-47 14 -15 -51 c-18 -60 -17
-61 74 -77 183 -32 331 58 318 194 -4 42 -10 55 -40 81 -19 16 -69 43 -111 58
-101 38 -123 79 -55 107 26 11 114 10 157 -1 8 -3 21 15 32 44 l18 48 -21 8
c-37 14 -140 20 -184 11z"/>
<path d="M13969 4876 c-147 -39 -233 -148 -233 -296 -1 -113 39 -177 138 -221
55 -24 179 -36 241 -22 40 9 40 9 40 57 l0 49 -82 -2 c-137 -4 -193 40 -193
148 0 121 71 191 193 191 36 0 77 -4 92 -10 25 -9 27 -7 46 35 11 25 18 49 14
54 -17 28 -177 39 -256 17z"/>
<path d="M14330 4853 c0 -5 -20 -116 -45 -248 -25 -132 -45 -250 -45 -261 0
-19 7 -22 62 -27 35 -3 64 -4 65 -3 1 1 24 121 51 267 48 262 49 264 28 271
-30 9 -116 9 -116 1z"/>
<path d="M14589 4838 c-8 -28 -115 -534 -114 -536 3 -3 316 -42 346 -42 24 0
27 5 34 46 3 25 5 48 3 50 -3 2 -50 9 -106 16 -56 6 -106 14 -111 17 -5 4 -4
30 2 64 11 58 11 59 41 53 17 -3 65 -8 107 -12 l77 -7 7 34 c3 19 8 41 11 50
4 13 -13 18 -102 29 l-106 12 7 37 c3 20 8 44 11 53 5 19 2 19 154 -1 36 -5
68 -6 72 -2 4 4 11 27 14 52 l6 46 -148 17 c-82 9 -161 19 -176 22 -16 3 -28
4 -29 2z"/>
<path d="M15046 4769 c-20 -59 -115 -514 -109 -520 5 -3 31 -9 60 -13 l52 -7
10 38 c5 21 25 107 43 192 29 139 34 151 41 120 15 -56 119 -363 126 -371 4
-4 35 -12 70 -16 50 -7 64 -6 68 5 7 17 121 517 119 520 -5 6 -117 19 -120 14
-3 -4 -19 -76 -36 -161 -18 -85 -35 -162 -37 -170 -3 -8 -20 32 -38 90 -59
188 -89 269 -100 274 -6 2 -41 7 -78 11 -52 6 -68 4 -71 -6z"/>
<path d="M15752 4645 c-77 -24 -139 -80 -178 -162 -100 -209 37 -383 301 -383
l55 0 2 35 c1 19 2 42 2 51 1 12 -13 16 -63 19 -158 10 -226 115 -161 249 26
56 62 82 128 98 45 10 59 9 118 -11 37 -12 70 -18 74 -14 4 4 17 24 28 44 l22
37 -32 15 c-83 39 -212 48 -296 22z"/>
<path d="M16183 4573 c-3 -10 -49 -125 -100 -257 -52 -131 -92 -239 -91 -240
9 -6 329 -96 341 -96 16 0 51 80 39 91 -4 4 -50 19 -102 34 -52 14 -98 30
-103 34 -10 10 24 102 40 108 7 3 52 -7 102 -21 49 -14 92 -26 94 -26 7 0 38
92 33 97 -2 2 -44 15 -95 30 -56 16 -91 31 -91 39 0 12 30 94 34 94 0 0 46
-14 101 -30 55 -16 103 -30 106 -30 8 0 42 90 36 96 -5 6 -312 94 -327 94 -6
0 -13 -8 -17 -17z"/>
<path d="M7115 2440 c-157 -20 -309 -92 -368 -176 -43 -61 -47 -119 -13 -189
l27 -55 127 0 127 0 0 104 c0 100 1 106 30 148 45 63 103 92 183 90 189 -2
367 -111 452 -275 l35 -67 123 0 c123 0 123 0 117 23 -27 90 -159 231 -272
290 -173 90 -382 130 -568 107z"/>
<path d="M4228 2415 c-77 -19 -126 -46 -170 -92 -77 -79 -77 -171 -2 -270 l25
-33 140 0 c76 0 139 2 139 5 0 2 -11 20 -24 40 -46 68 -45 190 2 246 35 42 65
52 106 35 67 -28 120 -136 133 -268 l6 -68 -1567 0 -1566 0 0 -50 0 -50 45 0
45 0 0 -195 0 -195 -110 0 -110 0 0 193 c0 107 -5 210 -11 232 -16 58 -98 135
-168 158 -112 36 -239 13 -318 -57 -48 -42 -82 -103 -83 -146 -1 -122 116
-226 267 -238 l63 -5 0 -67 0 -67 -69 -5 c-125 -9 -196 -68 -196 -162 0 -76
35 -125 120 -167 57 -28 77 -32 140 -32 63 0 84 4 132 29 81 42 114 91 121
183 l5 71 108 0 109 0 0 -160 c0 -146 -2 -162 -20 -180 -11 -11 -31 -22 -45
-26 -19 -5 -25 -13 -25 -35 l0 -29 220 0 220 0 0 28 c-1 22 -9 31 -43 47 l-42
20 -3 403 -2 402 125 0 125 0 -2 -402 -3 -403 -42 -20 c-34 -16 -42 -25 -43
-47 l0 -28 220 0 220 0 0 29 c0 22 -6 30 -25 35 -14 4 -34 15 -45 26 -19 19
-20 35 -20 415 l0 395 173 0 c200 0 251 -10 315 -66 66 -56 94 -113 100 -200
4 -65 2 -80 -23 -130 -29 -58 -84 -107 -148 -131 -41 -15 -142 -16 -208 -2
-42 9 -53 9 -60 -2 -14 -22 -10 -49 7 -49 25 0 71 -36 191 -151 163 -155 246
-190 368 -154 67 19 128 58 174 110 25 29 29 40 21 55 -15 28 -29 34 -48 17
-56 -49 -137 -60 -200 -28 -40 20 -132 98 -132 111 0 4 21 13 46 19 130 33
258 123 296 210 23 51 25 125 4 174 -18 44 -86 119 -134 149 -19 12 -63 32
-96 44 l-61 23 588 0 587 1 0 -95 c0 -52 -2 -95 -5 -95 -4 0 -18 6 -34 14 -15
8 -65 22 -111 32 -308 62 -590 -120 -590 -380 0 -118 61 -256 153 -344 l34
-33 115 57 115 57 -36 48 c-51 67 -72 130 -78 230 -7 112 12 175 72 235 75 74
180 82 303 23 l62 -30 0 -250 c0 -151 -4 -258 -10 -269 -6 -11 -28 -25 -51
-31 -35 -11 -40 -16 -37 -38 l3 -26 223 -3 222 -2 0 29 c0 25 -5 31 -30 36
-16 4 -39 18 -50 32 -19 25 -20 40 -20 414 l0 389 130 0 130 0 0 -399 c0 -438
2 -422 -60 -436 -25 -5 -30 -11 -30 -36 l0 -29 220 0 220 0 0 29 c0 24 -5 30
-30 34 -16 4 -39 16 -50 27 -19 19 -20 31 -20 416 l0 396 198 -4 c189 -3 199
-4 241 -28 60 -34 86 -71 86 -123 0 -55 -31 -98 -92 -127 -43 -20 -59 -22
-159 -18 l-110 5 8 -65 c26 -219 169 -380 365 -412 122 -20 269 27 348 111
l45 48 0 -82 c0 -95 -12 -119 -65 -137 -29 -10 -35 -16 -35 -41 l0 -29 223 2
222 3 3 26 c3 22 -2 28 -25 34 -15 3 -38 16 -50 27 l-23 21 0 394 0 393 75 0
75 0 0 50 0 50 -664 0 -663 0 -6 50 c-18 147 -158 292 -336 344 -80 23 -195
28 -263 11z m-3168 -394 c5 -11 10 -70 10 -131 0 -118 -9 -150 -40 -150 -31 0
-40 32 -40 150 0 118 9 150 40 150 11 0 24 -9 30 -19z m4700 -359 c0 -268 2
-259 -59 -325 -61 -67 -185 -93 -257 -54 -79 42 -148 151 -142 224 l3 38 67 7
c98 11 173 43 228 97 71 68 77 121 22 181 -15 17 -49 41 -77 54 l-50 25 133 0
132 1 0 -248z m-4693 -289 c-4 -53 -10 -71 -27 -85 -30 -24 -46 -23 -75 7 -33
32 -34 89 -3 122 16 17 32 23 66 23 l45 0 -6 -67z"/>
<path d="M13003 2405 c-84 -36 -89 -162 -7 -205 35 -19 92 -16 123 7 14 11 33
38 41 61 13 37 12 45 -3 77 -18 38 -69 75 -102 75 -11 -1 -34 -7 -52 -15z"/>
<path d="M14670 2039 c-122 -20 -228 -98 -251 -183 -32 -117 86 -258 236 -281
67 -11 73 -15 45 -30 -64 -35 -285 -44 -340 -15 -18 10 -20 7 -21 -27 -1 -35
-3 -34 -14 4 -3 9 -12 9 -39 -2 -45 -19 -127 -19 -171 -1 -36 16 -38 15 -55
-28 -9 -26 -8 -28 33 -46 57 -26 169 -27 218 -2 l36 18 12 -48 c16 -59 75
-152 126 -197 22 -19 69 -48 105 -65 157 -73 417 -33 544 85 l46 42 0 -65 c0
-75 -21 -112 -70 -123 -25 -5 -30 -12 -30 -36 l0 -29 220 0 220 0 0 29 c0 25
-6 31 -35 41 -19 6 -40 20 -45 30 -6 12 -10 170 -10 409 l0 391 130 0 130 0 0
-389 c0 -374 -1 -389 -20 -414 -11 -14 -34 -28 -50 -32 -25 -5 -30 -11 -30
-36 l0 -29 223 2 222 3 3 26 c3 22 -2 28 -25 34 -15 3 -38 16 -50 27 l-23 21
0 394 0 393 525 0 525 0 0 -124 0 -125 -64 29 c-129 59 -339 97 -471 87 -52
-5 -88 -15 -142 -42 -123 -61 -185 -155 -191 -288 -4 -71 -1 -84 27 -142 59
-119 165 -186 307 -193 137 -7 250 41 320 137 34 48 64 135 64 187 0 58 -29
130 -72 179 l-42 48 38 -7 c63 -12 159 -44 194 -66 l32 -20 -2 -232 -3 -233
-42 -20 c-34 -16 -42 -25 -43 -47 l0 -28 220 0 220 0 0 29 c0 22 -6 30 -25 35
-14 4 -34 15 -45 26 -19 19 -20 35 -20 415 l0 395 75 0 75 0 0 50 0 50 -1150
0 -1150 0 0 -50 0 -50 40 0 40 0 0 -251 c0 -289 -3 -299 -88 -356 -61 -41
-119 -56 -213 -56 -61 0 -87 5 -130 26 -30 14 -61 32 -70 39 -29 24 -69 90
-69 114 0 20 5 24 33 24 57 0 168 29 234 59 78 37 164 117 198 184 34 69 35
159 2 208 -68 102 -251 164 -407 138z m160 -99 c18 -18 20 -33 20 -140 0 -117
-1 -120 -25 -136 -31 -21 -99 -20 -131 1 -23 15 -24 19 -24 140 0 117 1 125
22 139 33 23 113 21 138 -4z m1676 -265 c25 -38 38 -224 25 -346 -12 -111 -22
-139 -50 -139 -34 0 -53 71 -58 215 -5 137 6 232 32 272 20 29 31 29 51 -2z"/>
<path d="M6617 2003 c-4 -3 -7 -26 -7 -50 l0 -43 75 0 75 0 2 -386 c2 -212 0
-394 -4 -405 -5 -11 -26 -28 -48 -37 -33 -14 -40 -22 -40 -44 l0 -28 220 0
220 0 0 29 c0 25 -6 31 -35 41 -19 6 -40 20 -45 30 -6 12 -10 170 -10 409 l0
391 420 0 420 0 0 -102 0 -102 -27 27 c-64 60 -209 97 -314 78 -168 -29 -291
-142 -319 -292 -23 -121 49 -267 167 -336 136 -79 344 -72 455 18 l38 30 0
-56 c0 -60 -18 -89 -65 -101 -19 -5 -25 -13 -25 -35 l0 -29 220 0 220 0 0 28
c-1 22 -9 31 -43 47 l-42 20 -3 403 -2 402 555 0 555 0 0 -76 0 -77 -78 7
c-42 3 -151 20 -242 37 -297 55 -440 40 -536 -55 -81 -80 -81 -170 0 -244 61
-56 120 -72 269 -72 103 0 124 -3 157 -21 113 -64 67 -208 -79 -249 -85 -23
-259 -4 -358 40 l-47 21 -18 -23 c-10 -13 -18 -28 -18 -33 0 -6 29 -25 65 -43
45 -22 96 -62 165 -127 115 -110 177 -145 276 -153 55 -4 71 -1 119 22 30 15
67 43 82 62 l26 35 -21 22 c-22 21 -22 21 -53 3 -44 -26 -88 -14 -146 39 l-48
44 80 1 c143 1 251 45 310 128 65 94 26 226 -84 284 -51 27 -59 28 -203 28
-154 0 -179 5 -210 44 -27 33 -24 107 6 139 50 54 127 55 357 2 60 -14 136
-28 169 -32 l60 -6 0 -267 c0 -264 0 -267 -22 -288 -13 -11 -36 -24 -51 -27
-23 -6 -28 -12 -25 -34 l3 -26 220 0 220 0 3 26 c3 22 -2 28 -25 34 -15 3 -38
16 -50 27 l-23 21 0 394 0 393 130 0 130 0 0 -393 0 -394 -22 -21 c-13 -11
-36 -24 -51 -27 -23 -6 -28 -12 -25 -34 l3 -26 220 0 220 0 3 27 c3 22 -2 27
-27 33 -17 4 -40 18 -51 32 -19 25 -20 40 -20 414 l0 389 530 0 530 0 0 -126
c0 -97 -3 -125 -12 -121 -161 73 -272 102 -429 113 -195 14 -340 -59 -407
-204 -76 -165 -5 -350 165 -430 52 -24 70 -27 163 -27 93 0 112 3 161 26 199
94 261 329 126 476 -34 37 -37 43 -19 43 32 0 153 -40 205 -68 l47 -25 0 -217
c0 -203 -1 -219 -20 -243 -11 -14 -34 -28 -50 -32 -25 -5 -30 -12 -30 -36 l0
-29 220 0 220 0 0 29 c0 25 -6 31 -35 41 -19 6 -40 20 -45 30 -6 12 -10 170
-10 409 l0 391 75 0 75 0 0 50 0 50 -2413 0 c-1328 0 -2417 -3 -2420 -7z
m1180 -332 c64 -32 64 -33 61 -206 l-3 -158 -53 -30 c-111 -62 -217 -30 -274
82 -61 121 -17 270 96 323 49 23 116 19 173 -11z m2756 11 c39 -43 48 -371 13
-456 -42 -100 -96 18 -96 208 1 145 27 266 59 266 4 0 15 -8 24 -18z"/>
<path d="M11900 1961 l0 -49 138 -4 c124 -4 142 -7 188 -31 98 -50 152 -127
161 -227 3 -33 0 -73 -7 -95 -17 -51 -73 -111 -134 -143 -47 -25 -60 -27 -171
-27 -68 0 -123 -4 -127 -10 -17 -23 -5 -41 39 -65 26 -14 97 -75 158 -136 133
-134 178 -159 280 -159 87 0 156 30 233 100 l53 48 -23 23 -23 24 -49 -25
c-64 -33 -124 -33 -174 -1 -39 25 -119 103 -111 109 2 2 31 8 64 15 122 24
234 104 275 195 44 95 14 214 -72 294 -50 46 -87 67 -162 94 l-51 18 268 0
267 1 0 -210 0 -211 -42 -19 c-53 -24 -79 -24 -146 -1 -58 20 -57 20 -67 -27
-6 -30 -4 -33 31 -48 57 -24 132 -28 182 -11 l43 15 -3 -147 -3 -146 -42 -20
c-34 -16 -42 -25 -43 -47 l0 -28 220 0 220 0 0 29 c0 25 -6 31 -35 41 -19 6
-40 20 -45 30 -6 12 -10 170 -10 410 l0 392 183 -4 c179 -3 183 -4 247 -34 74
-35 121 -78 151 -137 32 -61 24 -161 -17 -219 -71 -101 -171 -144 -315 -135
-87 6 -87 6 -94 -20 -3 -14 -5 -26 -3 -27 2 -2 26 -15 53 -31 28 -15 95 -74
151 -131 121 -123 180 -158 269 -158 46 -1 73 5 116 27 55 27 149 104 149 123
0 5 -9 20 -20 34 l-19 25 -23 -21 c-53 -49 -96 -56 -156 -25 -39 20 -132 97
-132 110 0 4 26 15 58 25 286 90 392 304 231 466 -47 47 -99 77 -181 105 l-73
24 283 1 282 0 0 50 0 50 -1210 0 -1210 0 0 -49z"/>
</g>
</svg>
