<?xml version="1.0" standalone="no"?>
<!DOCTYPE svg PUBLIC "-//W3C//DTD SVG 20010904//EN"
 "http://www.w3.org/TR/2001/REC-SVG-20010904/DTD/svg10.dtd">
<svg version="1.0" xmlns="http://www.w3.org/2000/svg"
 width="1200.000000pt" height="1071.000000pt" viewBox="0 0 1200.000000 1071.000000"
 preserveAspectRatio="xMidYMid meet">

<g transform="translate(0.000000,1071.000000) scale(0.100000,-0.100000)"
fill="#000000" stroke="none">
<path d="M5850 10419 c-127 -10 -275 -33 -350 -54 -85 -24 -184 -42 -315 -59
-203 -27 -459 -91 -670 -168 -137 -50 -546 -253 -634 -315 -36 -25 -125 -105
-196 -178 -77 -78 -148 -141 -175 -155 -84 -42 -162 -102 -270 -205 -62 -59
-138 -121 -179 -144 -177 -104 -303 -237 -405 -430 -56 -105 -63 -114 -157
-191 -131 -107 -236 -228 -293 -339 -55 -106 -102 -244 -111 -326 -8 -69 -17
-85 -96 -177 -146 -170 -228 -336 -265 -537 -8 -47 -30 -165 -49 -261 -62
-322 -85 -555 -85 -869 0 -172 20 -499 35 -564 2 -12 9 -92 15 -177 12 -186
34 -284 94 -419 25 -55 52 -128 60 -161 55 -212 305 -769 377 -838 23 -23 49
-63 65 -102 88 -216 232 -396 409 -511 60 -39 68 -48 116 -143 72 -140 119
-206 222 -313 l88 -91 -38 -6 c-21 -3 -96 -11 -168 -17 -463 -38 -1096 -139
-1600 -255 -306 -71 -808 -215 -883 -253 l-36 -18 60 -23 c32 -12 167 -59 299
-105 309 -107 355 -125 355 -135 0 -4 -24 -77 -54 -161 -93 -268 -149 -440
-144 -444 2 -3 96 25 209 60 560 178 1295 322 1939 381 246 22 743 22 1007 0
414 -35 752 -90 1109 -181 120 -30 223 -54 228 -52 6 2 -92 107 -217 234
l-228 231 128 30 c350 83 490 101 848 108 451 9 649 -8 1020 -91 154 -35 185
-44 185 -57 0 -6 -100 -111 -222 -234 -122 -123 -217 -224 -210 -224 6 0 111
25 234 55 403 100 740 154 1162 185 209 16 701 13 921 -5 651 -53 1369 -191
1969 -379 115 -36 211 -64 213 -63 1 2 -39 129 -91 283 -114 342 -111 330 -88
339 9 4 148 53 307 110 349 124 379 136 368 145 -12 12 -167 65 -336 114 -566
167 -1163 288 -1797 365 -226 28 -569 61 -637 61 -26 0 -24 4 41 63 90 80 166
184 240 325 55 105 64 116 120 154 34 23 113 93 176 157 125 126 179 208 241
366 22 58 39 86 55 93 12 6 39 41 60 79 96 170 294 636 329 772 9 35 36 107
60 161 60 133 75 198 86 372 5 82 14 168 19 191 20 90 33 416 27 722 -7 337
-17 436 -72 710 -18 94 -45 229 -59 300 -41 213 -102 335 -255 513 -83 96 -86
103 -110 232 -46 240 -192 471 -397 625 -82 62 -109 94 -149 175 -86 174 -223
324 -385 425 -59 36 -133 95 -197 156 -96 92 -205 174 -283 214 -19 9 -91 74
-160 144 -157 159 -209 196 -444 316 -315 161 -537 244 -797 300 -68 15 -214
49 -324 76 -217 53 -342 73 -560 89 -154 11 -154 11 -305 -1z m473 -129 c182
-18 387 -76 387 -110 0 -57 -125 -388 -226 -598 -159 -333 -318 -512 -454
-512 -117 1 -268 137 -404 363 -96 160 -223 464 -270 645 l-21 84 28 24 c39
33 199 79 377 107 52 9 489 6 583 -3z m-1113 -109 c5 -11 10 -28 10 -39 0
-107 222 -640 355 -855 32 -51 41 -73 32 -75 -19 -4 -300 97 -444 159 -227 99
-471 229 -668 357 -109 70 -225 160 -225 174 0 12 136 74 264 123 130 48 370
117 521 148 147 31 142 31 155 8z m1731 -16 c115 -25 383 -102 481 -140 114
-44 258 -114 258 -126 0 -27 -306 -235 -498 -338 -218 -117 -609 -290 -715
-316 -34 -9 -33 -6 46 133 101 179 203 421 297 705 19 59 37 97 45 97 8 0 46
-7 86 -15z m-2671 -410 c58 -45 148 -111 200 -146 52 -35 99 -67 104 -71 16
-11 -21 -45 -114 -108 -113 -75 -173 -110 -193 -110 -13 0 -12 10 8 76 46 150
41 189 -30 210 -50 16 -244 17 -354 4 -46 -6 -86 -8 -89 -5 -27 27 317 259
353 237 5 -3 57 -42 115 -87z m3714 1 c83 -54 186 -140 186 -156 0 -4 -19 -3
-42 1 -62 13 -326 23 -380 15 -58 -9 -98 -46 -98 -89 0 -17 12 -69 26 -115 14
-46 23 -87 20 -90 -15 -15 -198 94 -275 164 -33 29 -39 39 -30 51 7 7 66 52
133 98 67 46 157 113 200 149 l80 65 47 -18 c25 -10 86 -44 133 -75z m-3806
-254 c15 -10 -14 -97 -77 -236 l-39 -83 -88 -48 c-184 -99 -275 -175 -395
-331 -43 -55 -86 -107 -95 -115 -15 -13 -17 -11 -12 16 3 17 17 73 31 125 26
95 47 247 47 338 0 35 -6 57 -21 76 -20 26 -26 27 -86 24 l-64 -3 29 26 c102
91 323 183 512 212 48 8 245 7 258 -1z m3982 -25 c52 -14 124 -36 159 -51 73
-29 197 -104 225 -135 19 -21 19 -21 -34 -21 -41 0 -59 -5 -77 -22 -21 -19
-23 -30 -23 -114 0 -105 29 -291 60 -378 33 -96 3 -89 -70 16 -110 159 -219
256 -392 348 -98 53 -104 58 -135 115 -51 94 -107 241 -99 261 10 26 257 14
386 -19z m-3246 -116 c105 -49 217 -101 249 -115 31 -14 57 -29 57 -35 0 -16
-118 -117 -205 -176 -45 -30 -113 -67 -151 -81 -82 -32 -199 -64 -230 -64 -22
0 -22 1 13 87 43 107 53 185 29 212 -26 29 -108 45 -223 46 -57 0 -103 1 -103
2 0 0 26 16 58 33 31 18 92 57 134 86 71 50 150 93 172 94 5 0 95 -40 200 -89z
m2399 63 c18 -9 61 -38 97 -64 36 -26 91 -62 123 -80 31 -17 57 -35 57 -40 0
-4 -61 -9 -135 -12 -206 -6 -223 -28 -161 -209 42 -119 43 -129 16 -129 -32 0
-210 60 -275 93 -116 58 -305 200 -305 229 0 4 12 14 28 20 15 7 99 45 187 86
288 134 304 138 368 106z m-3865 -302 c7 -95 -53 -343 -114 -469 l-34 -71
-123 -60 c-67 -33 -167 -90 -222 -126 l-100 -66 -6 28 c-33 140 -43 173 -64
217 -14 27 -30 57 -36 66 -10 13 -3 31 37 99 90 151 253 290 422 360 77 32
209 71 227 66 6 -1 11 -21 13 -44z m2006 14 c56 -19 164 -55 241 -80 77 -25
172 -56 210 -70 119 -43 221 -31 330 39 52 33 148 72 292 119 l82 27 83 -73
c202 -180 374 -269 581 -303 51 -9 102 -18 114 -20 12 -3 44 -36 74 -77 98
-137 283 -293 417 -353 41 -18 48 -27 107 -145 67 -134 98 -179 206 -302 50
-57 69 -87 74 -115 43 -275 125 -462 273 -624 l51 -56 -6 -171 c-7 -186 2
-269 43 -405 l24 -79 -24 -29 c-20 -23 -25 -44 -30 -116 -35 -498 -68 -652
-233 -1073 -61 -157 -68 -187 -49 -231 5 -12 -8 -27 -50 -59 -162 -122 -308
-316 -369 -490 l-26 -76 -95 -43 c-182 -84 -348 -211 -441 -337 -54 -73 -37
-66 -273 -113 -85 -17 -164 -34 -176 -37 -29 -8 -51 41 -114 252 -243 806
-418 1968 -460 3062 -5 141 -14 261 -20 272 -15 27 -11 31 66 76 78 46 171
141 203 209 30 64 66 206 58 228 -6 15 -28 17 -229 17 -123 0 -246 3 -274 6
l-52 7 33 43 c50 66 60 104 60 239 -1 109 -4 129 -33 215 -40 116 -92 230
-104 230 -12 0 -70 -126 -102 -221 -30 -90 -50 -236 -40 -304 8 -60 30 -106
80 -166 l37 -44 -287 -3 -286 -2 0 -29 c0 -161 105 -329 270 -429 38 -24 63
-46 61 -54 -15 -53 -21 -127 -30 -373 -12 -312 -36 -617 -81 -1020 -89 -788
-214 -1437 -391 -2020 -57 -188 -78 -238 -98 -230 -101 42 -279 89 -394 104
-43 6 -80 11 -82 11 -1 0 -17 22 -34 49 -74 114 -276 278 -429 348 -43 19 -88
40 -101 46 -17 9 -31 34 -50 88 -61 174 -197 352 -380 500 -44 35 -44 37 -32
66 11 27 9 40 -24 124 -68 173 -162 458 -189 566 -44 182 -76 437 -76 615 0
74 -1 78 -27 95 -16 9 -30 18 -32 19 -1 2 8 38 22 81 52 159 68 321 47 477
l-13 97 52 57 c158 177 223 322 282 625 9 52 19 68 76 130 83 90 147 186 212
315 48 96 54 103 104 128 83 42 222 141 283 203 31 31 84 92 117 136 34 44 65
83 70 87 6 3 35 9 66 13 226 26 452 136 636 309 44 41 84 75 89 76 6 0 55 -15
110 -34z m3185 3 c223 -70 401 -201 520 -384 51 -77 61 -108 40 -121 -19 -11
-46 -83 -74 -194 -15 -58 -28 -106 -30 -108 -1 -2 -40 24 -86 57 -46 33 -144
90 -217 127 -118 59 -135 71 -158 110 -57 97 -124 353 -124 472 0 81 1 81 129
41z m-4070 -18 c9 -6 12 -18 7 -36 -13 -53 -96 -218 -150 -299 -49 -73 -172
-206 -236 -254 -41 -31 -116 -72 -122 -67 -3 3 1 38 9 78 8 39 15 111 16 159
2 79 0 90 -21 110 -19 20 -32 23 -85 21 -34 -1 -115 -15 -179 -31 -65 -16
-118 -26 -118 -23 0 9 138 143 185 178 104 80 268 144 410 162 94 11 267 13
284 2z m3201 -21 c104 -26 245 -92 325 -152 75 -58 184 -170 168 -175 -6 -2
-60 10 -120 28 -68 20 -131 33 -171 33 -59 1 -66 -1 -89 -29 -25 -28 -25 -32
-19 -125 4 -53 11 -121 15 -151 5 -30 6 -58 2 -62 -4 -4 -33 9 -64 30 -179
121 -321 302 -412 525 -47 113 -48 112 135 105 96 -4 174 -13 230 -27z m-3788
-440 c-7 -169 -88 -411 -188 -562 -45 -66 -88 -107 -101 -95 -3 4 -9 38 -12
77 -8 82 -33 124 -77 128 -16 1 -63 -9 -104 -22 l-75 -24 -6 91 c-4 51 -7 119
-8 153 l-1 61 59 47 c108 84 261 160 396 197 39 10 81 17 95 16 24 -2 25 -4
22 -67z m4118 44 c159 -43 353 -146 428 -227 l23 -25 -11 -138 c-6 -76 -14
-142 -16 -145 -2 -4 -33 4 -69 17 -76 28 -112 30 -142 9 -21 -15 -31 -49 -48
-162 -4 -24 -11 -43 -16 -43 -27 0 -158 216 -199 328 -53 146 -101 376 -84
403 8 14 32 11 134 -17z m-5371 -267 c59 -228 43 -486 -42 -679 -26 -58 -94
-138 -187 -218 l-59 -51 -32 103 c-35 115 -82 221 -110 249 -12 12 -33 19 -60
19 l-41 0 7 42 c25 148 136 341 266 464 94 87 216 170 231 156 4 -4 16 -42 27
-85z m6591 56 c231 -153 386 -367 435 -602 l7 -34 -35 7 c-28 5 -40 2 -64 -18
-34 -29 -48 -58 -106 -221 -23 -66 -48 -120 -55 -120 -6 0 -55 42 -107 93
-108 106 -141 164 -177 308 -38 153 -30 403 18 572 9 28 19 52 22 52 4 0 32
-16 62 -37z m-6026 -65 c3 -13 9 -93 12 -178 l7 -155 -59 -39 c-93 -61 -230
-208 -299 -320 -51 -84 -61 -95 -70 -79 -5 10 -27 35 -48 56 l-38 37 25 103
c14 56 30 145 36 197 6 52 16 109 21 127 11 33 63 81 154 143 47 32 232 130
246 130 4 0 9 -10 13 -22z m5466 -16 c97 -48 207 -122 272 -181 l50 -46 14
-126 c7 -69 25 -168 38 -220 14 -51 24 -94 23 -94 -27 -10 -63 -46 -77 -77
l-18 -40 -43 73 c-79 137 -200 271 -326 363 -51 36 -53 40 -53 84 0 68 19 282
26 293 8 13 12 12 94 -29z m-228 -374 c124 -65 242 -159 308 -246 68 -90 149
-254 157 -320 7 -64 -4 -67 -68 -19 -88 68 -134 76 -167 30 -30 -43 -88 -163
-107 -222 -10 -28 -23 -50 -29 -48 -20 6 -126 160 -166 243 -50 101 -78 208
-90 349 -9 99 -6 222 6 282 5 28 16 24 156 -49z m-4946 15 c13 -86 -3 -341
-26 -423 -39 -137 -149 -341 -217 -403 -20 -17 -21 -16 -38 30 -10 27 -40 92
-67 146 -67 131 -92 137 -207 52 -33 -25 -64 -45 -67 -45 -4 0 -4 27 -2 60 6
79 86 240 166 336 72 85 210 192 326 249 114 58 123 58 132 -2z m-1314 -374
c76 -184 106 -422 74 -599 -16 -87 -71 -243 -91 -260 -11 -9 -54 8 -202 84
-103 53 -196 104 -206 114 -17 15 -19 26 -13 87 10 126 62 261 149 390 52 76
231 259 249 253 7 -3 25 -34 40 -69z m7497 37 c134 -100 261 -283 321 -464 25
-76 30 -106 28 -165 l-3 -72 -205 -103 c-191 -97 -205 -102 -218 -85 -22 31
-81 229 -92 315 -22 156 15 380 92 561 11 26 23 47 25 47 3 0 26 -15 52 -34z
m-405 -246 l124 -120 7 -113 c9 -148 35 -275 79 -382 19 -48 33 -91 31 -95 -5
-8 -286 -130 -299 -130 -3 0 -6 21 -6 48 0 168 -68 388 -170 548 -23 37 -30
59 -30 100 0 50 45 227 69 272 11 21 13 21 41 7 16 -8 85 -69 154 -135z
m-6580 118 c17 -29 51 -132 71 -221 l16 -68 -65 -112 c-77 -133 -121 -257
-136 -387 -18 -149 -20 -160 -33 -160 -20 0 -287 112 -287 121 0 5 14 43 31
85 43 111 67 220 75 348 4 63 13 125 21 144 26 56 251 272 284 272 5 0 15 -10
23 -22z m385 -271 c63 -134 91 -237 101 -367 14 -192 -8 -349 -64 -458 -9 -18
-19 -32 -23 -32 -4 0 -90 25 -192 56 -102 31 -194 58 -203 61 -16 5 -18 20
-18 140 0 123 3 143 30 224 37 112 66 168 124 246 57 76 184 213 198 213 5 0
26 -37 47 -83z m5754 4 c170 -181 263 -390 274 -618 l6 -112 -28 -11 c-72 -27
-407 -120 -415 -115 -5 3 -23 49 -40 103 l-32 97 4 210 c4 208 4 211 37 300
57 155 88 215 109 215 11 0 48 -30 85 -69z m-2848 -606 c161 -1418 330 -2620
422 -2997 l26 -107 -29 -38 c-16 -20 -32 -40 -35 -45 -3 -5 -32 1 -65 12 -241
84 -531 72 -767 -31 -57 -25 -74 -29 -93 -20 -38 17 -38 50 0 208 103 427 250
1448 431 2983 48 408 57 474 62 450 1 -8 23 -195 48 -415z m-3955 26 c339
-166 493 -230 778 -321 120 -38 190 -66 185 -71 -15 -15 -202 -76 -348 -114
-267 -70 -482 -100 -801 -114 -115 -5 -212 -7 -216 -5 -12 8 26 398 63 638 10
71 19 131 19 132 0 10 37 -7 320 -145z m8030 123 c24 -62 70 -422 84 -651 l6
-93 -165 0 c-350 0 -736 65 -1080 181 -66 23 -126 44 -133 48 -7 4 71 33 175
65 269 82 459 161 793 327 162 81 298 148 303 148 4 1 12 -11 17 -25z m-6908
-650 c3 -27 12 -105 18 -174 6 -69 20 -172 30 -230 18 -99 24 -149 21 -177 -1
-14 -51 -30 -225 -72 -394 -96 -738 -127 -1092 -97 -105 9 -204 19 -221 22
l-30 6 -12 186 c-6 103 -14 215 -17 248 l-5 62 128 6 c521 24 901 95 1273 235
58 22 110 39 115 37 6 -1 13 -25 17 -52z m5643 1 c403 -143 653 -187 1247
-221 l107 -6 -5 -131 c-11 -268 -20 -349 -38 -362 -48 -36 -549 -52 -796 -26
-297 30 -742 129 -757 168 -3 7 6 84 21 171 14 86 30 207 36 267 14 148 20
195 26 195 3 0 74 -25 159 -55z m-168 -815 c124 -130 214 -205 375 -311 244
-161 551 -312 783 -384 66 -21 124 -42 130 -47 12 -11 -7 -65 -101 -284 -94
-222 -172 -381 -188 -387 -32 -13 -393 184 -545 298 -208 154 -409 345 -574
544 -89 107 -167 214 -167 231 0 6 24 73 54 148 29 75 64 169 76 207 21 65 36
95 47 95 2 0 52 -50 110 -110z m-5301 -45 c28 -77 65 -174 82 -215 l32 -74
-37 -56 c-50 -75 -164 -216 -266 -328 -172 -189 -418 -395 -608 -510 -132 -80
-378 -197 -390 -185 -31 31 -265 579 -275 645 l-5 33 156 53 c287 97 487 193
725 349 163 107 258 184 390 317 63 64 122 115 130 114 9 -2 35 -58 66 -143z
m-322 71 c-9 -25 -171 -156 -193 -156 -13 0 -54 87 -48 104 3 10 191 63 229
65 11 1 15 -4 12 -13z m5924 -22 c40 -8 76 -22 78 -29 7 -17 -31 -105 -45
-105 -12 0 -146 107 -179 143 l-23 25 48 -9 c26 -5 81 -16 121 -25z m-7088
-53 c91 -7 188 -14 216 -17 l51 -5 7 -77 c3 -42 20 -134 38 -204 30 -123 31
-128 14 -147 -17 -18 -249 -100 -323 -114 -29 -6 -34 -3 -60 41 -36 59 -79
160 -99 232 -17 63 -32 316 -18 308 5 -3 83 -11 174 -17z m7527 -5 c100 -8
187 -17 193 -21 5 -3 10 -21 10 -40 0 -78 -58 -306 -81 -321 -19 -12 -388 184
-420 223 -9 10 -6 30 16 86 35 90 38 94 72 90 16 -2 110 -10 210 -17z m-6681
-62 c20 -55 25 -81 18 -93 -20 -33 -398 -246 -416 -235 -20 13 -70 204 -75
292 l-6 92 94 1 c52 1 123 5 159 9 36 4 95 8 131 8 l67 2 28 -76z m7426 50
c15 -33 -4 -215 -33 -311 -27 -88 -82 -204 -109 -228 -21 -19 -22 -18 -108 9
-118 39 -235 84 -256 99 -16 11 -15 20 12 127 17 63 35 156 42 205 7 50 18 93
24 97 6 4 49 8 96 9 47 1 114 5 150 9 36 4 89 8 118 8 47 2 54 0 64 -24z
m-6565 -474 c64 -49 174 -160 212 -215 50 -72 123 -215 117 -230 -3 -8 -17
-15 -31 -15 -63 0 -82 -72 -70 -271 4 -65 4 -119 1 -119 -12 0 -135 49 -182
73 -138 70 -258 278 -294 509 l-13 77 97 116 c53 63 100 115 103 115 3 0 30
-18 60 -40z m4820 -45 c81 -102 113 -159 113 -200 0 -59 -41 -190 -90 -290
-57 -116 -131 -205 -199 -239 -59 -30 -171 -76 -185 -76 -8 0 -10 50 -8 168 4
159 3 168 -18 195 -13 16 -31 27 -46 27 -14 0 -27 7 -31 16 -15 40 124 261
219 349 75 70 157 135 168 135 5 0 39 -38 77 -85z m-5148 -383 c16 -26 41 -74
56 -107 14 -33 44 -90 66 -126 l40 -67 -32 -32 -32 -32 6 -139 c4 -76 4 -139
1 -139 -3 0 -40 9 -82 19 -43 11 -108 25 -147 31 -88 14 -123 28 -136 52 -6
10 -38 53 -73 96 -85 104 -116 153 -116 178 0 15 30 46 98 101 53 44 137 116
186 161 86 76 91 79 112 65 13 -8 36 -36 53 -61z m5526 -28 c66 -59 150 -131
188 -161 98 -79 98 -78 -71 -291 -63 -78 -79 -92 -110 -98 -41 -6 -243 -51
-280 -60 l-23 -7 1 124 c2 170 3 164 -26 198 l-26 31 37 59 c20 33 53 97 74
143 39 82 94 168 109 168 4 0 61 -48 127 -106z m-4734 -147 c143 -58 265 -135
365 -233 86 -82 99 -108 64 -119 -11 -3 -25 -16 -31 -27 -32 -59 41 -295 136
-444 19 -30 30 -54 24 -54 -6 0 -73 14 -148 31 -119 27 -143 36 -196 74 -121
86 -233 228 -293 370 -39 94 -86 385 -69 429 9 24 32 20 148 -27z m3896 27
c10 -27 -16 -266 -37 -344 -46 -166 -143 -312 -276 -420 -40 -32 -92 -65 -116
-73 -57 -20 -260 -68 -265 -63 -2 2 20 53 50 112 66 133 110 263 111 327 1 42
-3 52 -28 72 -39 31 -31 48 58 133 113 107 241 186 401 248 72 27 94 29 102 8z
m1543 -357 c52 -27 97 -51 98 -53 9 -7 -71 -183 -114 -252 -48 -78 -230 -272
-255 -272 -7 0 -26 12 -42 27 -28 28 -29 28 -150 25 -67 -1 -134 0 -148 3
l-28 6 15 42 c24 69 52 187 64 272 6 44 19 98 30 121 11 22 65 87 119 143 l98
103 109 -57 c60 -32 152 -80 204 -108z m-6763 114 c52 -41 168 -177 177 -208
3 -10 14 -72 26 -138 11 -66 30 -149 41 -185 11 -36 22 -72 25 -81 4 -15 -13
-17 -146 -21 -149 -4 -150 -4 -180 -33 l-29 -28 -57 43 c-109 85 -216 228
-271 365 -52 127 -55 121 100 198 72 36 155 79 182 95 28 17 57 30 67 31 9 1
38 -16 65 -38z m848 -48 c101 -33 219 -86 262 -119 21 -16 45 -51 63 -91 41
-90 128 -218 189 -277 l50 -49 -29 -34 c-27 -30 -29 -37 -23 -85 3 -29 16 -90
29 -136 34 -117 34 -116 -28 -91 -29 11 -99 42 -156 70 -93 45 -115 61 -212
157 -90 89 -115 121 -149 190 -75 149 -121 328 -121 469 0 36 -2 36 125 -4z
m4820 8 c9 -30 -12 -207 -34 -286 -29 -102 -55 -159 -117 -251 -98 -148 -234
-255 -418 -328 -96 -39 -121 -44 -113 -22 25 65 49 162 54 217 5 58 3 69 -14
86 -11 11 -27 23 -34 25 -10 4 2 21 36 54 73 71 126 145 192 268 l58 109 79
40 c90 45 250 106 283 107 13 0 24 -8 28 -19z m-3655 -196 c191 -29 336 -86
461 -179 125 -94 233 -216 191 -216 -5 0 -27 -16 -50 -36 -31 -26 -42 -43 -42
-64 0 -16 -3 -31 -7 -33 -5 -3 -86 -15 -181 -27 -137 -17 -179 -19 -207 -10
-70 23 -213 187 -281 323 -39 76 -95 237 -88 249 8 12 99 9 204 -7z m2567 4
c14 -14 2 -63 -37 -158 -63 -154 -162 -293 -267 -375 -54 -43 -28 -42 -313
-11 -74 8 -162 15 -195 16 -123 2 -130 14 -62 113 130 194 301 316 532 381
137 38 319 57 342 34z m-4089 -85 c164 -37 167 -39 237 -180 33 -66 81 -147
107 -180 88 -114 216 -218 356 -288 37 -19 52 -32 50 -44 -4 -21 -73 -55 -147
-73 l-55 -13 -30 39 c-58 74 -141 157 -206 206 -78 59 -229 138 -321 168 -37
12 -74 30 -83 40 -32 35 -88 202 -110 329 l-6 34 52 -7 c29 -4 99 -18 156 -31z
m5608 24 c14 -22 4 -89 -27 -185 -57 -177 -57 -177 -137 -202 -181 -55 -308
-133 -454 -282 -59 -60 -112 -109 -117 -109 -21 0 -167 50 -185 63 -17 12 -10
18 75 66 195 111 316 238 416 438 30 62 63 119 72 127 25 23 93 45 216 71 131
28 132 28 141 13z m-2651 -263 c38 -8 91 -22 117 -31 l48 -16 -27 -50 c-15
-28 -37 -56 -48 -64 -15 -10 -124 -16 -433 -25 -226 -7 -415 -9 -419 -5 -4 4
3 16 17 26 36 28 215 114 278 135 137 44 338 57 467 30z m1505 -145 c0 -25
-62 -199 -75 -210 -9 -8 -29 -10 -57 -5 -75 12 -321 62 -368 75 -41 11 -43 13
-25 26 28 21 166 72 243 90 37 9 110 19 162 24 52 4 101 8 108 9 6 0 12 -3 12
-9z m-3189 -33 c98 -26 249 -89 249 -104 0 -5 -48 -19 -107 -30 -60 -12 -168
-35 -241 -50 -116 -25 -134 -26 -142 -13 -12 17 -54 149 -65 199 l-7 34 108
-6 c66 -3 147 -15 205 -30z m-1511 -7 c134 -12 223 -36 335 -92 117 -59 181
-106 262 -191 112 -118 117 -104 -60 -177 -84 -35 -187 -81 -230 -102 l-78
-39 -67 45 c-75 49 -183 155 -238 231 -58 81 -154 284 -154 327 0 11 89 10
230 -2z m6098 4 c28 -8 26 -20 -19 -134 -61 -153 -174 -300 -307 -401 l-63
-48 -82 38 c-45 21 -151 66 -235 101 -84 34 -155 67 -158 71 -8 13 79 110 150
167 171 139 370 206 621 211 39 0 80 -2 93 -5z m-2538 -143 c737 -65 1434
-242 2045 -521 l70 -32 -30 -25 c-51 -41 -274 -186 -386 -251 -126 -73 -351
-186 -499 -252 l-108 -47 -88 34 c-369 139 -793 234 -1176 264 -90 7 -288 9
-510 6 -306 -4 -385 -8 -503 -26 -351 -54 -667 -133 -920 -228 l-130 -50 -60
25 c-180 73 -493 236 -680 354 -136 86 -265 178 -265 189 0 26 375 181 657
273 459 148 914 239 1463 291 171 16 917 13 1120 -4z m-3301 -670 c268 -198
528 -345 951 -538 205 -94 356 -171 348 -178 -2 -2 -50 3 -106 11 -543 76
-1191 85 -1706 24 -559 -66 -1275 -210 -1614 -324 -73 -25 -102 -31 -102 -22
0 8 36 120 81 251 46 134 77 241 72 246 -5 5 -107 44 -228 87 -121 43 -229 83
-239 89 -23 13 29 29 299 97 661 165 1363 284 1915 325 232 17 208 22 329 -68z
m5941 53 c513 -47 1155 -158 1693 -293 290 -73 382 -100 371 -111 -5 -4 -92
-38 -194 -75 -232 -84 -280 -105 -280 -119 0 -6 34 -114 76 -239 42 -126 73
-231 70 -235 -4 -3 -46 5 -94 18 -695 186 -1150 273 -1752 335 -209 22 -725
30 -976 16 -206 -11 -546 -44 -643 -61 -30 -6 -56 -8 -59 -6 -6 7 190 104 398
198 348 158 626 315 870 492 l145 106 105 -6 c58 -3 179 -12 270 -20z"/>
<path d="M5956 2929 c-3 -17 -6 -75 -6 -128 1 -154 35 -209 137 -218 65 -5
108 14 139 62 23 36 43 267 25 289 -16 19 -67 21 -77 4 -5 -7 -11 -68 -14
-136 -5 -106 -8 -126 -25 -138 -24 -18 -46 -18 -71 0 -17 13 -19 30 -22 155
l-4 141 -38 0 c-34 0 -38 -3 -44 -31z"/>
<path d="M5636 2941 c-42 -6 -63 -28 -53 -55 5 -11 19 -16 51 -16 l45 0 5 -52
c3 -29 8 -93 11 -143 3 -49 9 -93 13 -97 4 -3 22 -3 41 0 l34 8 -1 69 c-1 39
-5 103 -8 143 -6 71 -6 72 17 72 42 0 67 11 72 32 12 43 0 48 -97 47 -50 -1
-109 -5 -130 -8z"/>
<path d="M6344 2927 c-13 -34 1 -52 45 -61 l44 -9 -7 -81 c-3 -45 -9 -109 -12
-142 l-7 -61 38 -7 c20 -4 39 -5 41 -3 7 6 22 115 29 210 l7 77 49 0 50 0 -3
32 c-3 38 -14 41 -175 53 -79 6 -94 5 -99 -8z"/>
<path d="M5419 2916 c-4 -5 17 -255 27 -323 5 -31 7 -33 46 -33 l41 0 -7 92
c-3 51 -11 132 -17 180 l-12 88 -37 0 c-20 0 -39 -2 -41 -4z"/>
<path d="M5193 2890 c-132 -23 -133 -23 -133 -60 0 -29 1 -30 49 -30 l49 0 12
-72 c6 -40 17 -102 23 -138 l12 -65 33 2 c18 0 36 4 40 7 3 4 -2 63 -11 131
-19 139 -16 159 32 168 33 7 49 40 31 62 -15 18 -9 18 -137 -5z"/>
<path d="M6696 2797 c-25 -166 -34 -241 -30 -248 5 -9 213 -43 219 -37 3 3 7
18 8 34 2 32 -18 41 -90 43 l-43 1 0 46 0 45 48 -6 c26 -3 57 -8 70 -11 21 -4
23 -2 20 33 -3 36 -4 37 -58 48 -52 9 -55 12 -55 40 0 28 3 30 35 29 19 0 50
-2 69 -5 30 -3 35 -1 44 24 5 16 7 30 4 33 -4 4 -97 22 -198 39 -25 4 -26 3
-43 -108z"/>
<path d="M4845 2831 c-50 -21 -101 -96 -90 -132 10 -30 63 -68 121 -85 84 -24
94 -70 18 -80 -89 -12 -105 -25 -83 -66 9 -17 18 -20 62 -16 102 9 157 55 157
131 0 54 -31 83 -111 107 -43 13 -69 26 -69 35 0 21 40 45 76 45 34 0 49 19
39 51 -5 15 -16 19 -53 18 -26 0 -56 -4 -67 -8z"/>
<path d="M7231 2758 c-42 -28 -82 -101 -88 -162 -15 -131 128 -226 251 -166
67 32 101 93 101 182 0 107 -52 160 -163 166 -57 3 -72 0 -101 -20z m158 -74
c26 -33 26 -76 1 -133 -23 -50 -45 -70 -76 -71 -31 0 -71 36 -79 70 -9 39 20
125 48 145 35 24 82 19 106 -11z"/>
<path d="M4571 2761 c-12 -8 -10 -24 13 -101 15 -51 26 -94 23 -96 -2 -2 -41
30 -86 71 -46 41 -92 75 -103 75 -29 0 -78 -28 -73 -43 2 -6 23 -75 46 -152
52 -176 53 -179 87 -170 15 3 30 9 34 13 4 4 -7 51 -23 105 -17 54 -28 101
-25 105 4 3 47 -34 96 -83 l88 -88 47 13 c28 8 44 18 42 25 -3 6 -28 84 -56
173 -46 145 -54 162 -74 162 -12 0 -28 -4 -36 -9z"/>
<path d="M7592 2563 c-70 -179 -76 -205 -55 -221 37 -27 59 -12 89 62 15 37
16 38 52 32 84 -15 97 -13 97 14 0 20 -10 30 -45 47 -25 12 -49 24 -54 26 -10
3 11 48 27 59 6 3 35 -3 65 -14 57 -21 70 -18 74 22 3 22 -6 27 -92 62 -52 20
-98 38 -101 38 -4 0 -29 -57 -57 -127z"/>
<path d="M4184 2630 c-12 -5 -25 -13 -28 -18 -6 -10 108 -310 124 -326 9 -9
45 -2 68 12 10 7 2 37 -38 137 -57 143 -87 205 -98 204 -4 0 -17 -4 -28 -9z"/>
<path d="M3158 2382 c-21 -4 -23 -33 -8 -136 6 -38 8 -71 6 -73 -2 -2 -32 37
-66 87 -35 50 -71 95 -81 100 -29 16 -79 12 -86 -6 -7 -18 13 -242 25 -289 7
-24 14 -31 40 -33 38 -4 38 2 22 137 -6 46 -9 85 -8 87 2 2 39 -46 81 -106 66
-95 81 -110 105 -110 56 0 57 6 44 142 -21 206 -23 211 -74 200z"/>
<path d="M2640 2343 c-14 -3 -28 -8 -32 -12 -10 -9 -52 -340 -45 -348 4 -3 21
-3 39 1 30 5 35 12 46 50 10 37 16 44 43 50 52 10 58 8 84 -34 26 -42 48 -49
80 -27 17 13 15 21 -46 136 -65 125 -112 192 -132 190 -7 -1 -23 -4 -37 -6z
m60 -143 c15 -36 7 -60 -19 -60 -28 0 -32 11 -25 64 7 51 22 50 44 -4z"/>
<path d="M2340 2280 c0 -19 53 -271 66 -313 5 -15 12 -17 32 -12 15 3 31 10
36 15 6 6 -4 73 -24 170 l-33 160 -39 0 c-31 0 -38 -3 -38 -20z"/>
<path d="M2000 2237 c-37 -10 -46 -17 -48 -37 -3 -28 54 -290 66 -302 13 -13
139 9 188 32 62 31 79 60 79 140 0 75 -23 123 -76 154 -40 24 -147 30 -209 13z
m145 -67 c54 -34 74 -114 41 -165 -15 -23 -90 -54 -101 -43 -11 10 -47 199
-41 213 8 22 63 19 101 -5z"/>
<path d="M1774 2186 c-3 -7 4 -50 16 -96 11 -45 20 -86 18 -91 -2 -5 -37 29
-78 76 l-75 86 -48 -4 c-26 -2 -50 -6 -52 -9 -9 -8 68 -309 82 -323 7 -7 22
-11 33 -8 26 7 26 34 0 141 -11 46 -20 86 -20 89 0 3 41 -38 91 -91 84 -89 94
-96 129 -96 22 0 41 4 44 8 6 9 -47 226 -70 290 -13 34 -20 42 -40 42 -14 0
-27 -6 -30 -14z"/>
<path d="M1393 2123 c-19 -7 -16 -31 23 -195 l36 -150 37 7 c20 4 38 8 40 10
7 7 -68 287 -84 311 -15 23 -27 28 -52 17z"/>
<path d="M8733 2341 c-69 -32 -97 -101 -57 -142 11 -10 44 -31 74 -46 30 -15
56 -35 58 -45 4 -21 -48 -38 -108 -35 -41 2 -45 0 -48 -22 -5 -32 12 -41 77
-41 105 0 182 64 162 135 -6 23 -23 38 -79 68 -91 49 -95 77 -9 77 51 0 77 11
77 31 0 41 -77 51 -147 20z"/>
<path d="M9080 2338 c-82 -23 -130 -89 -130 -177 0 -104 45 -142 178 -149 l84
-5 -4 29 c-3 27 -6 29 -60 34 -89 8 -128 54 -109 128 17 63 50 85 126 87 72 1
97 14 79 43 -13 20 -109 27 -164 10z"/>
<path d="M9326 2324 c-9 -8 -16 -18 -16 -22 0 -4 -11 -70 -25 -147 -13 -77
-20 -144 -16 -148 5 -5 24 -7 42 -5 l34 3 22 125 c27 156 28 196 7 204 -24 9
-31 8 -48 -10z"/>
<path d="M9471 2283 c-21 -78 -60 -287 -55 -292 3 -3 47 -11 97 -17 95 -12
137 -6 137 20 0 21 -16 28 -79 35 l-56 6 0 35 c0 35 0 35 50 38 76 4 95 10 95
32 0 19 -9 24 -73 35 -41 7 -56 28 -40 53 7 12 27 16 79 17 63 0 69 2 72 22 2
16 -3 24 -20 27 -24 6 -173 26 -188 26 -5 0 -14 -17 -19 -37z"/>
<path d="M9771 2276 c-13 -16 -73 -297 -67 -313 8 -19 54 -16 65 5 5 10 18 57
27 104 10 48 21 85 25 82 4 -2 22 -47 39 -99 35 -104 52 -130 92 -139 35 -8
38 -2 77 161 39 168 39 173 0 173 -25 0 -32 -6 -43 -32 -8 -18 -17 -56 -21
-83 -7 -59 -21 -88 -29 -65 -65 185 -77 207 -121 212 -20 2 -40 -1 -44 -6z"/>
<path d="M10182 2185 c-45 -21 -56 -32 -77 -77 -57 -122 -15 -207 115 -238 65
-16 102 -7 98 22 -2 17 -14 25 -51 34 -52 13 -85 37 -97 68 -12 33 10 94 44
122 29 25 35 26 103 20 66 -5 72 -4 78 14 9 28 0 38 -43 50 -59 16 -113 12
-170 -15z"/>
<path d="M10466 2117 c-45 -101 -96 -235 -96 -250 0 -24 23 -36 115 -59 85
-20 88 -21 101 -3 19 26 3 41 -62 60 -57 17 -67 33 -41 69 13 17 19 18 65 6
62 -14 85 -8 80 21 -2 15 -17 26 -48 38 -46 17 -60 41 -41 70 8 12 17 12 67
-2 62 -18 84 -11 84 24 0 14 -18 24 -87 44 -49 15 -94 28 -101 31 -8 2 -22
-16 -36 -49z"/>
<path d="M4915 1316 c-91 -28 -125 -69 -125 -149 0 -35 -5 -52 -20 -64 -22
-19 -27 -62 -8 -81 7 -7 29 -12 50 -12 l38 0 0 -240 0 -240 50 0 50 0 0 239 0
238 89 7 c49 4 151 4 226 0 l137 -7 -7 -121 c-8 -135 -10 -140 -92 -172 -81
-32 -143 1 -143 77 0 45 25 69 80 76 32 5 44 11 51 30 22 58 -38 81 -119 48
-71 -30 -112 -86 -112 -154 0 -85 44 -143 127 -167 58 -17 125 -9 183 21 l30
16 0 -66 0 -65 45 0 45 0 0 240 0 240 345 0 345 0 0 -35 0 -35 -166 0 -165 0
3 -41 c3 -39 6 -42 48 -58 39 -14 45 -21 48 -49 3 -31 2 -32 -37 -32 -54 0
-90 15 -132 56 l-36 35 -26 -27 c-15 -15 -27 -30 -27 -35 0 -9 83 -102 184
-206 l70 -73 33 32 32 31 -34 39 c-19 21 -35 42 -35 47 0 5 14 11 30 15 17 3
42 17 55 30 21 21 25 35 25 86 l0 61 63 -3 62 -3 3 -157 3 -158 44 0 45 0 0
240 0 240 75 0 75 0 0 -240 0 -240 50 0 50 0 0 240 0 240 178 0 c99 0 220 3
271 7 l92 6 -3 -64 -3 -64 -110 -7 c-229 -14 -252 -23 -275 -107 -22 -81 23
-163 97 -177 44 -8 104 15 120 46 15 29 17 96 4 104 -17 11 -61 -13 -73 -39
-17 -38 -52 -30 -56 13 -6 58 5 62 159 62 l139 0 0 -130 0 -130 50 0 50 0 0
245 0 245 100 0 c97 0 100 1 100 23 0 12 3 32 6 45 l6 22 -967 0 -967 0 -72
52 c-99 73 -220 134 -296 152 -77 19 -102 19 -155 2z m213 -116 c83 -32 142
-65 142 -78 0 -13 -334 -24 -365 -12 -20 8 -25 16 -25 44 0 81 107 101 248 46z"/>
<path d="M3164 1286 c-32 -32 -34 -38 -34 -105 l0 -71 -707 -2 -708 -3 0 -45
0 -45 78 -3 77 -3 0 -73 c0 -86 0 -86 -112 -86 l-68 0 0 43 c-1 68 -19 176
-36 208 -19 37 -75 63 -120 56 -50 -8 -81 -35 -100 -84 -16 -41 -16 -50 -3
-86 14 -41 70 -91 93 -84 19 6 19 70 1 83 -26 19 -15 58 16 62 25 3 26 1 32
-65 13 -129 12 -131 -30 -138 -89 -15 -116 -40 -129 -122 -16 -103 94 -174
201 -129 39 16 54 41 70 111 l11 50 87 3 87 3 0 -116 0 -115 50 0 50 0 0 245
0 246 73 -3 72 -3 3 -242 2 -243 44 0 44 0 4 239 c2 132 6 242 8 244 3 2 74 2
158 -1 l153 -4 -3 -97 c-3 -111 -17 -125 -66 -72 l-28 31 -38 -32 -37 -33 121
-140 c66 -77 131 -148 145 -158 29 -22 61 -15 70 14 7 22 -13 57 -88 149 l-45
55 28 31 c28 32 33 52 46 187 l6 67 92 0 c50 0 169 3 264 7 l173 6 -3 -64 -3
-64 -135 -5 c-155 -7 -200 -22 -232 -80 -25 -47 -24 -125 3 -175 26 -49 99
-142 118 -150 7 -3 29 6 48 21 l34 26 -51 54 c-79 83 -94 139 -52 187 13 14
34 17 144 17 l128 0 0 -130 0 -130 50 0 50 0 0 245 0 245 38 -1 c20 -1 62 -4
92 -7 l55 -7 5 -235 5 -235 43 -3 42 -3 0 240 0 241 124 0 c123 0 125 0 145
-26 45 -58 9 -124 -68 -124 -41 0 -81 -23 -81 -46 0 -24 108 -131 154 -154 54
-25 117 -26 191 0 32 11 60 20 62 20 1 0 3 -34 3 -75 l0 -75 50 0 50 0 0 239
0 239 88 7 c108 9 122 16 122 60 l0 35 -434 0 -434 0 -45 63 c-86 119 -128
147 -224 147 -49 0 -59 -4 -89 -34z m160 -77 c41 -29 79 -76 71 -89 -3 -5 -35
-10 -71 -10 -76 0 -104 20 -104 74 0 50 50 62 104 25z m724 -199 l32 0 0 -105
0 -105 -52 -30 c-58 -33 -125 -40 -185 -18 -41 15 -41 22 -3 38 17 7 44 28 60
47 27 30 30 40 30 102 0 37 3 71 8 75 4 4 23 5 42 2 19 -3 50 -6 68 -6z
m-2470 -291 c3 -41 -16 -64 -47 -54 -33 10 -39 54 -11 77 34 28 54 19 58 -23z"/>
<path d="M8285 1270 l-39 -40 44 -45 44 -45 43 42 c24 23 43 46 43 50 0 11
-72 78 -85 78 -6 0 -29 -18 -50 -40z"/>
<path d="M9110 1138 l-45 -23 -668 -3 -668 -3 3 -47 3 -47 86 -3 87 -3 5 -36
c6 -33 2 -97 -9 -150 -6 -29 -31 -29 -60 -2 -24 23 -44 18 -78 -20 -18 -20
-18 -21 22 -73 62 -80 212 -238 226 -238 7 0 23 11 36 25 l23 24 -29 38 c-16
21 -46 57 -68 81 l-40 43 27 26 c25 25 33 27 147 31 l120 4 0 -116 0 -116 50
0 50 0 0 247 0 246 165 -6 c91 -4 170 -9 175 -12 11 -7 13 -146 4 -182 -8 -29
-40 -30 -70 -2 l-23 21 -30 -22 c-17 -12 -31 -27 -31 -34 0 -12 121 -161 212
-261 l46 -50 26 24 c14 14 26 31 26 39 0 7 -27 46 -60 86 -33 40 -60 77 -60
82 0 5 13 18 27 28 23 17 48 21 168 24 l142 4 59 -45 c104 -81 188 -96 296
-52 34 14 63 25 65 25 2 0 3 -36 3 -80 l0 -80 50 0 50 0 0 245 0 245 65 0 65
0 0 -245 0 -245 50 0 50 0 0 239 c0 132 3 241 8 244 4 2 130 1 280 -1 l273 -4
-3 -57 -3 -56 -153 -7 c-174 -9 -211 -20 -236 -73 -25 -53 -21 -128 9 -164 51
-59 153 -63 190 -7 19 29 23 95 5 106 -22 14 -64 -4 -70 -31 -4 -17 -13 -24
-30 -24 -21 0 -26 5 -28 33 -6 58 4 62 169 62 l149 0 0 -130 0 -130 45 0 45 0
0 238 0 239 97 6 c105 7 113 12 113 65 l0 32 -650 0 -650 0 0 -50 0 -50 56 0
56 0 -4 -99 c-4 -113 -10 -123 -83 -157 -62 -29 -106 -30 -165 -3 -41 19 -43
22 -26 32 48 29 87 73 112 123 57 116 5 228 -116 248 -25 5 -47 0 -80 -16z
m90 -83 c17 -9 31 -26 35 -43 8 -37 -20 -108 -49 -125 -34 -19 -172 -36 -293
-37 l-113 0 0 80 0 80 125 0 125 0 39 -35 c23 -21 49 -35 65 -35 23 0 26 4 26
34 0 18 -7 39 -15 46 -25 21 -16 46 18 49 4 1 21 -6 37 -14z m-972 -90 c2 -27
1 -65 -3 -82 l-6 -33 -98 0 c-111 0 -111 0 -111 73 0 79 6 86 69 90 31 2 76 3
101 3 l45 -1 3 -50z"/>
</g>
</svg>
