<?xml version="1.0" standalone="no"?>
<!DOCTYPE svg PUBLIC "-//W3C//DTD SVG 20010904//EN"
 "http://www.w3.org/TR/2001/REC-SVG-20010904/DTD/svg10.dtd">
<svg version="1.0" xmlns="http://www.w3.org/2000/svg"
 width="1006.000000pt" height="959.000000pt" viewBox="0 0 1006.000000 959.000000"
 preserveAspectRatio="xMidYMid meet">

<g transform="translate(0.000000,959.000000) scale(0.100000,-0.100000)"
fill="#000000" stroke="none">
<path d="M2323 7372 c4 -7 362 -639 403 -710 11 -20 32 -57 46 -82 13 -25 34
-61 46 -80 11 -19 29 -51 40 -70 11 -19 28 -51 39 -70 11 -19 96 -168 188
-330 92 -162 175 -306 184 -320 9 -14 21 -36 28 -50 7 -14 24 -43 37 -65 14
-22 32 -53 41 -70 8 -16 28 -52 45 -80 16 -27 36 -63 45 -80 8 -16 26 -48 39
-70 14 -22 31 -51 39 -65 202 -363 336 -588 344 -577 13 16 48 79 114 202 29
55 66 123 81 150 15 28 36 68 47 90 11 22 38 72 59 110 62 110 101 182 160
295 30 58 58 110 62 115 4 6 23 39 42 75 20 36 50 92 68 125 18 33 58 107 88
165 30 58 58 110 62 115 4 6 23 39 42 75 20 36 50 92 68 125 18 33 58 107 88
165 30 58 58 110 62 115 7 10 70 124 97 178 8 15 18 27 22 27 4 0 24 -33 45
-72 21 -40 58 -109 82 -153 25 -44 54 -98 65 -120 11 -22 30 -58 42 -80 13
-22 38 -69 57 -105 19 -36 65 -120 102 -186 37 -67 68 -124 68 -127 0 -3 15
-32 34 -64 18 -32 56 -101 83 -153 28 -52 65 -122 83 -155 18 -33 51 -94 73
-135 22 -41 43 -79 47 -85 7 -10 101 -184 148 -275 12 -25 34 -65 48 -90 14
-25 47 -85 73 -135 86 -161 113 -205 123 -199 6 4 17 21 25 38 8 17 25 49 38
71 12 22 33 59 46 82 13 23 95 167 183 320 87 153 170 298 184 323 14 25 33
57 43 71 10 15 23 37 29 50 5 13 22 45 37 71 16 26 113 197 217 380 104 183
205 357 224 387 18 30 38 63 43 75 5 12 22 44 39 71 16 28 34 61 40 75 6 14
17 32 24 40 8 8 29 44 49 80 19 36 101 181 182 323 81 142 146 260 144 261 -8
7 -5449 14 -5446 8z"/>
<path d="M7270 4144 c-222 -41 -376 -144 -463 -311 -90 -171 -90 -433 0 -606
50 -97 145 -191 238 -236 39 -18 77 -37 86 -41 41 -21 146 -32 261 -28 106 4
132 8 187 32 36 15 81 40 100 54 44 33 111 101 111 112 0 5 -17 22 -38 38
l-37 30 -50 -51 c-72 -72 -171 -117 -273 -124 -288 -20 -508 155 -544 431 -44
343 171 606 496 606 72 0 108 -5 153 -22 67 -25 165 -90 188 -124 20 -31 34
-30 79 5 l37 30 -54 54 c-63 63 -120 96 -213 127 -66 21 -209 34 -264 24z"/>
<path d="M1151 4063 c10 -32 28 -92 40 -133 12 -41 30 -102 39 -135 10 -33 30
-98 44 -145 13 -47 34 -119 46 -160 12 -41 29 -102 40 -135 10 -33 30 -103 45
-155 15 -52 38 -129 50 -170 l23 -75 65 -3 65 -3 12 33 c6 18 22 69 35 113 12
44 32 109 43 145 25 84 69 228 93 308 10 34 28 93 39 130 12 37 28 94 37 127
30 114 28 117 102 -135 19 -63 54 -181 91 -305 10 -33 30 -103 45 -155 15 -52
33 -113 41 -135 7 -22 18 -59 24 -83 l11 -43 67 3 66 3 17 55 c10 30 27 89 40
130 48 164 58 198 82 280 14 47 35 119 47 160 20 69 42 143 90 305 10 33 27
90 39 128 32 102 30 107 -29 107 l-49 0 -22 -72 c-11 -40 -30 -104 -40 -143
-11 -38 -29 -99 -39 -135 -11 -36 -31 -105 -45 -155 -14 -49 -34 -119 -45
-155 -11 -36 -24 -83 -29 -105 -13 -53 -71 -249 -76 -253 -9 -9 -24 11 -30 41
-3 17 -15 59 -25 92 -22 73 -65 217 -90 305 -29 99 -101 343 -127 428 l-17 53
-69 -3 -70 -3 -19 -65 c-24 -83 -39 -133 -73 -245 -15 -49 -36 -119 -46 -155
-10 -36 -27 -94 -38 -130 -60 -194 -73 -239 -83 -277 -6 -24 -17 -43 -23 -43
-7 0 -18 26 -25 58 -7 31 -15 62 -19 67 -3 6 -14 39 -23 75 -17 64 -31 114
-83 295 -15 50 -35 119 -45 155 -10 36 -30 106 -45 155 -14 50 -31 113 -39
141 -18 71 -21 74 -80 74 l-53 0 18 -57z"/>
<path d="M3061 4103 c-5 -10 -55 -121 -111 -248 -56 -126 -111 -250 -122 -275
-64 -140 -89 -196 -129 -287 -11 -27 -26 -59 -34 -73 -19 -37 -115 -257 -115
-264 0 -3 24 -6 53 -6 59 0 44 -22 136 190 l50 115 331 3 c308 2 331 1 336
-15 4 -10 14 -36 24 -58 10 -22 32 -74 50 -115 53 -128 46 -120 108 -120 39 0
53 3 49 13 -6 15 -430 961 -464 1037 -57 125 -53 120 -105 120 -35 0 -50 -5
-57 -17z m109 -210 c23 -54 48 -111 55 -128 7 -16 47 -107 88 -201 42 -94 77
-179 79 -190 3 -18 -8 -19 -266 -22 -170 -1 -273 1 -280 8 -6 6 -6 17 1 32 13
27 36 79 88 198 44 102 68 155 95 213 11 24 20 46 20 49 0 15 61 138 69 138 4
0 27 -44 51 -97z"/>
<path d="M3847 4113 c-4 -3 -7 -267 -7 -585 l0 -578 55 0 55 0 2 538 3 537
110 3 c199 5 309 -25 369 -101 29 -36 31 -44 31 -121 0 -72 -3 -87 -26 -122
-16 -23 -48 -51 -80 -69 -50 -27 -64 -30 -171 -33 l-118 -4 0 -49 0 -48 57 -3
57 -3 88 -145 c48 -80 106 -176 128 -215 102 -175 92 -165 161 -165 l59 0 -24
38 c-21 32 -133 213 -161 260 -5 10 -35 57 -65 105 -73 116 -80 131 -72 138 4
4 37 16 74 28 85 28 159 91 185 159 22 57 24 167 4 235 -31 109 -136 178 -297
197 -99 11 -407 14 -417 3z"/>
<path d="M4710 4108 c0 -7 7 -38 16 -68 9 -30 25 -84 35 -120 10 -36 30 -103
43 -150 14 -47 46 -155 71 -240 25 -85 55 -184 65 -220 10 -36 28 -96 40 -135
11 -38 30 -105 42 -147 l21 -78 67 0 c77 0 69 -11 113 140 14 47 37 126 52
175 15 50 33 108 40 130 7 22 27 90 45 150 18 61 38 128 45 150 7 22 23 73 36
113 13 45 25 70 31 64 5 -5 18 -40 28 -78 10 -38 31 -107 45 -154 25 -80 45
-150 79 -265 8 -27 28 -97 46 -155 17 -58 38 -130 46 -160 30 -113 28 -110
104 -110 66 0 68 1 74 28 7 29 32 117 72 252 14 47 34 112 44 145 9 33 27 92
38 130 11 39 32 111 47 160 15 50 36 122 47 160 11 39 31 104 43 145 13 41 26
90 30 108 l7 32 -54 0 -53 0 -34 -123 c-19 -67 -45 -160 -59 -207 -13 -47 -33
-114 -43 -150 -51 -179 -72 -251 -89 -312 -11 -38 -28 -99 -39 -136 -30 -111
-34 -113 -60 -25 -12 43 -31 110 -43 148 -45 152 -57 194 -83 285 -15 52 -35
122 -45 155 -36 117 -59 200 -66 230 -4 17 -12 33 -18 37 -19 13 -134 9 -143
-4 -4 -7 -15 -40 -25 -73 -22 -82 -51 -180 -88 -305 -18 -58 -38 -127 -46
-155 -8 -27 -24 -81 -35 -120 -12 -38 -29 -99 -39 -135 -10 -36 -25 -83 -33
-105 l-14 -40 -15 50 c-19 59 -47 155 -84 285 -14 52 -34 122 -44 155 -30 100
-57 194 -90 315 -18 63 -38 134 -46 158 -8 23 -14 49 -14 56 0 18 -22 26 -71
26 -25 0 -39 -5 -39 -12z"/>
<path d="M6422 3528 l3 -583 50 0 50 0 3 583 2 582 -55 0 -55 0 2 -582z"/>
<path d="M7970 3525 l0 -585 50 0 50 0 0 585 0 585 -50 0 -50 0 0 -585z"/>
<path d="M8714 4088 c-11 -13 -144 -144 -295 -291 l-274 -268 75 -71 c96 -92
231 -220 345 -327 50 -47 115 -108 146 -138 l57 -53 77 0 78 0 -49 46 c-172
161 -374 353 -464 441 l-105 103 290 290 290 290 -76 0 c-66 0 -78 -3 -95 -22z"/>
<path d="M2327 2593 c-10 -10 -8 -232 3 -277 5 -22 22 -53 39 -70 28 -27 37
-31 91 -31 51 0 63 4 88 28 44 42 53 86 50 227 -2 103 -6 125 -18 125 -13 0
-15 -24 -18 -143 -3 -163 -11 -185 -71 -203 -29 -9 -44 -8 -72 4 -57 23 -69
62 -69 216 0 120 -4 143 -23 124z"/>
<path d="M2690 2409 c0 -176 1 -190 18 -187 15 3 18 21 22 160 l5 158 45 -68
c132 -197 174 -252 192 -252 17 0 18 10 16 188 -4 236 -21 253 -28 27 l-5
-160 -20 28 c-11 14 -39 55 -63 89 -129 191 -143 208 -162 208 -19 0 -20 -8
-20 -191z"/>
<path d="M3096 2593 c-3 -3 -6 -89 -6 -190 0 -156 2 -183 15 -183 13 0 15 27
15 184 0 168 -5 208 -24 189z"/>
<path d="M3200 2587 c0 -13 44 -133 70 -192 23 -50 60 -153 60 -164 0 -7 9
-11 21 -9 21 3 29 18 79 153 10 28 32 86 49 130 28 74 30 104 6 87 -6 -4 -16
-23 -22 -42 -6 -19 -26 -71 -43 -115 -17 -44 -36 -97 -42 -117 -9 -34 -38 -54
-38 -27 0 6 -6 25 -14 42 -8 18 -19 48 -25 67 -38 121 -101 238 -101 187z"/>
<path d="M4266 2585 c-41 -21 -55 -44 -56 -87 0 -45 35 -78 110 -103 49 -16
90 -54 90 -82 0 -8 -13 -28 -29 -44 -37 -36 -93 -40 -127 -8 -16 15 -27 18
-39 11 -15 -8 -14 -11 9 -30 54 -42 158 -36 191 11 24 35 19 104 -10 132 -13
14 -31 25 -40 25 -8 0 -23 4 -33 10 -9 5 -29 14 -45 20 -34 12 -50 50 -36 87
6 15 16 31 22 35 20 13 92 9 114 -7 17 -12 23 -12 32 -2 8 11 2 17 -25 30 -43
21 -90 22 -128 2z"/>
<path d="M5575 2591 c-67 -16 -105 -53 -129 -124 -20 -59 -20 -72 0 -130 31
-92 121 -140 222 -119 48 10 64 19 99 57 70 77 71 176 3 257 -51 59 -114 78
-195 59z m143 -51 c32 -23 44 -41 57 -82 14 -47 14 -57 0 -105 -39 -132 -212
-156 -284 -39 -29 46 -29 136 -1 182 49 79 152 99 228 44z"/>
<path d="M8375 2595 c-5 -2 -22 -6 -37 -9 -64 -14 -127 -102 -128 -177 0 -44
24 -116 48 -142 61 -69 207 -74 265 -9 26 28 -1 36 -31 9 -16 -15 -39 -22 -80
-24 -66 -4 -93 7 -134 58 -62 77 -39 197 48 246 50 29 96 29 145 1 50 -28 74
-13 31 19 -27 20 -104 37 -127 28z"/>
<path d="M1160 2575 c0 -12 14 -15 65 -15 l65 0 0 -171 c0 -132 3 -170 13
-167 9 4 13 49 15 171 l2 167 60 0 c47 0 60 3 60 15 0 13 -22 15 -140 15 -118
0 -140 -2 -140 -15z"/>
<path d="M1520 2405 c0 -172 1 -186 18 -183 14 3 17 17 20 91 l3 88 102 -3
102 -3 3 -88 c2 -64 6 -87 15 -84 18 6 17 359 0 365 -10 3 -13 -17 -13 -77 l0
-81 -105 0 -104 0 -3 77 c-3 65 -6 78 -20 81 -17 3 -18 -11 -18 -183z"/>
<path d="M1900 2405 l0 -185 115 0 c94 0 115 3 115 15 0 11 -20 15 -97 17
l-98 3 0 70 0 70 89 5 c59 3 91 9 94 18 3 9 -20 12 -92 12 l-96 0 0 65 0 65
100 0 c82 0 100 3 100 15 0 12 -19 15 -115 15 l-115 0 0 -185z"/>
<path d="M3580 2405 l0 -185 116 0 c88 0 115 3 112 13 -3 8 -35 13 -101 15
l-97 3 0 74 0 75 90 0 c73 0 90 3 90 15 0 12 -17 15 -90 15 l-91 0 3 68 3 67
98 3 c137 4 123 22 -18 22 l-115 0 0 -185z"/>
<path d="M3900 2405 c0 -156 2 -185 15 -185 11 0 15 19 17 88 l3 87 35 0 c33
0 37 -4 84 -87 35 -62 56 -88 69 -88 17 0 16 6 -13 58 -18 31 -41 68 -51 81
-23 28 -24 41 -5 41 27 0 76 56 76 89 0 77 -37 101 -156 101 l-74 0 0 -185z
m182 135 c24 -29 23 -65 -2 -90 -16 -16 -33 -20 -85 -20 l-65 0 0 63 c0 35 3
67 8 71 4 5 34 6 67 3 45 -4 64 -11 77 -27z"/>
<path d="M4520 2405 c0 -158 2 -185 15 -185 13 0 15 27 15 185 0 158 -2 185
-15 185 -13 0 -15 -27 -15 -185z"/>
<path d="M4622 2578 c3 -8 27 -14 61 -16 l57 -3 0 -169 c0 -144 2 -170 15
-170 13 0 15 26 15 170 0 129 3 170 13 171 6 0 36 1 65 1 38 0 52 4 52 14 0
11 -27 14 -141 14 -108 0 -140 -3 -137 -12z"/>
<path d="M5021 2488 l69 -103 0 -82 c0 -67 3 -83 15 -83 12 0 15 15 15 78 l0
77 64 97 c35 53 67 101 70 107 4 7 -1 11 -12 11 -14 0 -36 -26 -74 -90 -50
-82 -56 -88 -70 -72 -16 19 -46 66 -64 97 -28 51 -40 65 -61 65 -19 0 -14 -11
48 -102z"/>
<path d="M5910 2405 c0 -156 2 -185 15 -185 11 0 15 19 17 88 l3 87 88 3 c108
3 116 22 10 22 -43 0 -84 4 -91 9 -9 5 -12 26 -10 67 l3 59 89 5 c59 3 91 9
94 18 3 9 -23 12 -107 12 l-111 0 0 -185z"/>
<path d="M6315 2568 c11 -42 55 -192 75 -258 11 -36 20 -71 20 -77 0 -7 11
-13 23 -13 20 0 26 9 41 58 9 31 29 99 44 150 15 51 32 93 37 93 5 0 22 -44
38 -98 15 -54 34 -122 43 -150 11 -40 19 -53 33 -53 21 0 31 23 76 175 14 50
33 111 41 137 8 26 14 49 14 52 0 12 -31 6 -35 -6 -2 -7 -12 -44 -23 -83 -71
-247 -64 -229 -78 -203 -7 14 -20 51 -28 84 -44 172 -59 214 -78 214 -25 0
-27 -7 -95 -247 -17 -60 -30 -77 -37 -50 -80 281 -85 297 -102 297 -11 0 -14
-6 -9 -22z"/>
<path d="M6943 2573 c-6 -18 -86 -206 -124 -290 -23 -50 -24 -63 -5 -63 7 0
23 23 34 50 l21 51 98 -3 97 -3 24 -47 c14 -27 31 -48 38 -48 8 0 14 2 14 5 0
3 -30 74 -66 158 -37 83 -71 164 -77 180 -13 31 -44 36 -54 10z m70 -125 c21
-51 33 -96 29 -100 -5 -5 -40 -8 -78 -6 -68 3 -69 3 -67 30 1 15 8 42 17 60 8
18 22 50 30 71 8 20 19 37 23 37 4 0 25 -41 46 -92z"/>
<path d="M7212 2410 c2 -136 6 -184 16 -188 9 -3 12 17 12 76 0 86 10 106 51
100 16 -2 37 -28 73 -90 33 -56 57 -88 69 -88 24 0 22 7 -28 85 -25 38 -45 75
-45 82 0 7 11 15 25 19 28 7 65 60 65 93 0 11 -13 35 -29 53 -27 30 -32 32
-120 36 l-91 4 2 -182z m176 132 c17 -10 22 -22 22 -50 0 -31 -5 -41 -29 -55
-38 -22 -126 -23 -135 -1 -10 25 -7 109 4 120 12 12 107 3 138 -14z"/>
<path d="M7515 2573 c4 -10 11 -34 17 -53 10 -38 33 -112 69 -227 20 -63 26
-73 46 -73 13 0 23 6 23 13 0 6 12 53 26 102 14 50 33 114 42 143 9 32 19 49
24 44 9 -9 57 -162 80 -254 9 -39 16 -48 33 -48 23 0 32 24 85 210 12 41 27
94 34 118 12 37 11 42 -3 42 -16 0 -17 -4 -82 -227 -13 -46 -28 -81 -34 -80
-5 2 -13 19 -17 38 -8 33 -29 104 -65 217 -22 69 -46 71 -66 5 -38 -127 -57
-191 -65 -222 -4 -19 -12 -36 -17 -38 -6 -1 -20 32 -33 75 -12 42 -32 106 -42
142 -11 36 -20 71 -20 78 0 6 -9 12 -21 12 -16 0 -19 -4 -14 -17z"/>
<path d="M8090 2405 c0 -158 2 -185 15 -185 13 0 15 27 15 185 0 158 -2 185
-15 185 -13 0 -15 -27 -15 -185z"/>
<path d="M8630 2405 c0 -158 2 -185 15 -185 12 0 15 17 15 95 0 52 4 95 9 95
5 0 11 -4 13 -9 6 -19 170 -180 189 -186 34 -11 20 10 -71 104 -49 52 -90 97
-90 101 0 6 94 93 175 162 5 4 -2 8 -15 8 -17 0 -54 -27 -117 -86 l-93 -86 0
86 c0 70 -3 86 -15 86 -13 0 -15 -27 -15 -185z"/>
</g>
</svg>
