<?xml version="1.0" standalone="no"?>
<!DOCTYPE svg PUBLIC "-//W3C//DTD SVG 20010904//EN"
 "http://www.w3.org/TR/2001/REC-SVG-20010904/DTD/svg10.dtd">
<svg version="1.0" xmlns="http://www.w3.org/2000/svg"
 width="800.000000pt" height="600.000000pt" viewBox="0 0 800.000000 600.000000"
 preserveAspectRatio="xMidYMid meet">
<metadata>
Created by potrace 1.16, written by Peter Selinger 2001-2019
</metadata>
<g transform="translate(0.000000,600.000000) scale(0.100000,-0.100000)"
fill="#000000" stroke="none">
<path d="M1920 5475 c0 -2 232 -422 516 -932 284 -511 553 -994 598 -1074 l82
-147 36 67 c44 81 84 157 333 631 109 206 235 445 280 530 45 85 117 223 160
305 43 83 81 153 84 157 5 6 395 -724 806 -1509 49 -95 93 -173 96 -173 3 0
60 98 126 218 697 1250 1043 1872 1057 1900 l17 32 -2096 0 c-1152 0 -2095 -2
-2095 -5z"/>
<path d="M5670 2926 c-410 -88 -492 -686 -124 -896 78 -45 163 -63 270 -58
112 6 194 40 268 112 l49 48 -29 24 c-16 13 -33 23 -37 24 -4 0 -21 -16 -38
-35 -17 -19 -61 -49 -97 -67 -60 -30 -75 -33 -152 -32 -110 1 -181 28 -255 95
-164 151 -176 439 -24 604 56 61 109 91 194 110 119 28 236 -2 321 -80 26 -25
50 -45 53 -45 3 1 19 12 36 25 l29 24 -47 45 c-104 101 -255 137 -417 102z"/>
<path d="M3754 2893 c4 -15 63 -223 132 -461 68 -238 124 -435 124 -437 0 -3
24 -5 53 -5 l52 0 99 338 c116 396 122 412 129 392 3 -8 52 -176 108 -372
l103 -358 51 0 52 0 128 448 c70 246 130 455 133 465 4 16 -1 18 -39 15 l-44
-3 -110 -395 c-61 -217 -113 -401 -116 -409 -3 -8 -42 118 -88 280 -45 162
-93 328 -105 369 l-23 75 -58 0 -58 0 -105 -368 c-58 -202 -107 -366 -109
-364 -2 3 -54 186 -116 408 l-113 404 -43 3 c-43 3 -43 3 -37 -25z"/>
<path d="M5070 2455 l0 -465 40 0 40 0 0 465 0 465 -40 0 -40 0 0 -465z"/>
<path d="M6260 2455 l0 -465 40 0 40 0 0 465 0 465 -40 0 -40 0 0 -465z"/>
<path d="M6628 2693 c-126 -126 -227 -233 -226 -239 2 -6 110 -113 240 -238
l237 -226 58 0 58 1 -239 232 -238 233 221 226 c121 124 221 229 221 232 0 3
-23 6 -52 6 l-52 0 -228 -227z"/>
<path d="M1010 2898 c0 -7 58 -213 128 -458 l128 -445 51 -3 52 -3 19 63 c11
35 59 198 107 363 48 165 91 303 94 307 4 5 54 -157 112 -360 l106 -367 53 0
53 0 128 445 c71 245 128 451 129 458 0 7 -14 12 -40 12 l-39 0 -19 -62 c-10
-35 -61 -215 -112 -400 -52 -186 -97 -338 -100 -338 -3 0 -53 164 -110 365
l-104 366 -55 -3 -54 -3 -77 -262 c-43 -144 -90 -307 -105 -363 -16 -55 -31
-100 -35 -100 -3 0 -26 69 -49 153 -24 83 -67 240 -97 347 -30 107 -61 219
-70 248 -14 52 -15 52 -54 52 -26 0 -40 -5 -40 -12z"/>
<path d="M2481 2893 c-13 -26 -391 -893 -391 -898 0 -3 19 -5 43 -5 l42 0 51
123 50 122 254 0 253 0 51 -122 51 -123 44 0 c30 0 42 4 38 13 -4 11 -176 406
-329 757 l-63 145 -42 3 c-32 2 -44 -1 -52 -15z m152 -306 c54 -127 100 -242
103 -254 l6 -23 -211 0 c-159 0 -211 3 -211 12 0 16 203 498 210 498 3 0 49
-105 103 -233z"/>
<path d="M3082 2453 l3 -458 43 -3 42 -3 0 425 0 426 118 0 c133 0 178 -10
222 -47 105 -88 67 -255 -68 -293 -20 -5 -70 -10 -109 -10 l-73 0 0 -34 c0
-34 1 -35 42 -38 l42 -3 124 -212 124 -213 45 0 c32 0 44 4 40 13 -2 6 -57 99
-121 206 -64 106 -118 198 -119 203 -1 5 21 17 50 27 113 39 163 108 163 227
0 85 -23 138 -76 182 -62 52 -114 62 -316 62 l-178 0 2 -457z"/>
<path d="M3395 1695 c-25 -24 -31 -57 -19 -90 4 -10 35 -30 70 -45 40 -18 65
-36 69 -50 8 -26 -18 -70 -43 -71 -33 -2 -57 3 -72 16 -9 9 -21 11 -29 6 -11
-7 -8 -12 10 -24 39 -25 67 -29 104 -17 39 13 55 35 55 75 0 41 -16 62 -57 75
-62 20 -83 37 -83 70 0 15 7 36 16 44 20 20 68 21 84 1 10 -12 16 -13 24 -5
17 17 -21 40 -66 40 -28 0 -46 -7 -63 -25z"/>
<path d="M4391 1702 c-56 -28 -76 -64 -76 -135 0 -78 25 -118 90 -142 55 -21
103 -14 146 22 60 51 73 117 38 190 -36 74 -124 103 -198 65z m119 -15 c60
-30 85 -112 56 -182 -29 -68 -130 -88 -187 -37 -41 36 -52 116 -24 168 29 55
101 78 155 51z"/>
<path d="M6519 1699 c-48 -28 -70 -68 -71 -128 0 -80 45 -140 117 -155 35 -7
90 7 116 30 29 26 12 35 -24 14 -51 -31 -103 -26 -142 13 -61 61 -54 158 15
205 40 27 98 26 129 -2 17 -15 31 -13 31 5 0 16 -59 39 -97 39 -21 0 -54 -10
-74 -21z"/>
<path d="M1300 1565 c0 -122 2 -145 15 -145 12 0 15 14 15 70 l0 70 80 0 80 0
0 -70 c0 -40 4 -70 10 -70 6 0 10 55 10 145 0 90 -4 145 -10 145 -6 0 -10 -28
-10 -65 l0 -65 -80 0 -80 0 0 65 c0 51 -3 65 -15 65 -13 0 -15 -23 -15 -145z"/>
<path d="M1590 1565 l0 -145 90 0 c53 0 90 4 90 10 0 6 -32 10 -75 10 l-75 0
0 60 0 60 70 0 c40 0 70 4 70 10 0 6 -30 10 -70 10 l-70 0 0 55 0 55 75 0 c43
0 75 4 75 10 0 6 -37 10 -90 10 l-90 0 0 -145z"/>
<path d="M1920 1595 c0 -88 4 -121 15 -139 35 -53 121 -58 166 -10 22 24 24
35 27 145 3 103 2 119 -12 119 -14 0 -16 -17 -16 -113 0 -106 -2 -115 -23
-135 -31 -29 -87 -29 -113 -1 -16 18 -20 40 -22 135 -2 63 -8 114 -13 114 -5
0 -9 -52 -9 -115z"/>
<path d="M2200 1565 c0 -122 2 -145 15 -145 13 0 15 21 15 128 l0 127 83 -127
c111 -172 117 -171 117 17 0 90 -4 145 -10 145 -6 0 -10 -47 -10 -120 0 -66
-3 -120 -7 -120 -5 0 -43 54 -87 120 -109 166 -116 164 -116 -25z"/>
<path d="M2593 1698 c2 -7 26 -73 53 -145 34 -92 53 -133 64 -133 11 0 30 41
64 133 27 72 51 138 53 145 3 6 -1 12 -9 12 -9 0 -30 -44 -58 -124 -25 -68
-48 -123 -51 -120 -4 2 -26 58 -49 124 -28 80 -47 120 -57 120 -8 0 -13 -6
-10 -12z"/>
<path d="M2880 1565 l0 -145 90 0 c53 0 90 4 90 10 0 6 -32 10 -75 10 l-75 0
0 60 0 60 70 0 c40 0 70 4 70 10 0 6 -30 10 -70 10 l-70 0 0 55 0 55 75 0 c43
0 75 4 75 10 0 6 -37 10 -90 10 l-90 0 0 -145z"/>
<path d="M3130 1565 c0 -122 2 -145 15 -145 12 0 15 14 15 70 0 68 1 70 24 70
20 0 32 -13 63 -70 26 -48 44 -70 57 -70 18 0 18 1 0 28 -40 61 -65 112 -54
112 22 0 60 49 60 79 0 47 -39 71 -116 71 l-64 0 0 -145z"/>
<path d="M4996 1663 c8 -27 26 -92 41 -145 38 -134 51 -132 93 15 18 61 36
118 39 125 4 7 22 -40 41 -108 30 -109 49 -144 66 -127 6 6 83 265 84 280 0 4
-6 7 -13 7 -8 0 -26 -47 -47 -125 -18 -69 -35 -123 -37 -121 -3 2 -19 57 -37
123 -27 94 -37 119 -52 121 -16 2 -24 -16 -55 -125 l-36 -128 -18 60 c-9 33
-26 90 -36 128 -13 42 -25 67 -34 67 -12 0 -12 -7 1 -47z"/>
<path d="M5417 1572 c-31 -75 -57 -140 -57 -144 0 -21 22 -3 40 32 l20 40 74
0 73 0 16 -40 c8 -22 22 -40 30 -40 11 0 -1 38 -46 145 -42 101 -65 145 -76
145 -11 0 -34 -43 -74 -138z"/>
<path d="M5680 1565 c0 -85 4 -145 10 -145 5 0 10 30 12 68 3 63 4 67 28 70
22 3 31 -6 65 -68 26 -45 46 -70 57 -70 15 0 10 12 -23 67 -29 48 -38 68 -28
72 26 8 59 51 59 76 0 14 -11 37 -25 50 -21 22 -33 25 -90 25 l-65 0 0 -145z"/>
<path d="M5912 1698 c3 -7 22 -73 43 -145 50 -173 59 -174 105 -13 18 66 37
120 40 120 4 0 22 -54 40 -120 45 -163 55 -162 105 13 21 72 40 138 42 145 3
6 -2 12 -10 12 -10 0 -20 -14 -25 -32 -5 -18 -19 -72 -32 -120 -13 -49 -26
-88 -29 -88 -6 0 -19 43 -63 208 -6 21 -15 32 -27 32 -15 0 -25 -23 -52 -120
-19 -66 -37 -120 -40 -120 -3 0 -20 54 -38 120 -24 86 -37 120 -48 120 -8 0
-13 -6 -11 -12z"/>
<path d="M6770 1565 c0 -90 4 -145 10 -145 6 0 10 32 10 75 0 41 3 75 6 75 3
0 37 -34 76 -75 61 -66 98 -91 98 -68 0 4 -33 41 -72 81 l-73 74 70 64 c49 46
64 64 50 64 -11 0 -50 -30 -87 -67 l-68 -67 0 67 c0 38 -4 67 -10 67 -6 0 -10
-55 -10 -145z"/>
</g>
</svg>
